<svg width="488" height="383" viewBox="0 0 488 383" fill="none" xmlns="http://www.w3.org/2000/svg">
<g opacity="0.8">
<path d="M88.5881 313.399C85.1167 308.872 79.1381 305.019 69.3025 307.62L-36.9612 328.106L-32.9754 355.368C-27.6419 361.73 -20.5539 366.385 -12.5931 368.754C-4.63218 371.124 3.85026 371.103 11.7993 368.694C28.4913 364.047 44.3488 356.808 58.7919 347.244L55.1275 422.575C65.7336 425.428 77.0331 424.07 86.6595 418.786C89.1345 417.277 91.4488 344.707 92.2202 326.083C92.4885 323.834 92.3054 321.554 91.6818 319.376C91.0582 317.198 90.0065 315.167 88.5881 313.399Z" fill="black"/>
<path d="M23.9169 416.828L-67.304 364.135V376.979L23.9491 429.512L23.9169 416.828Z" fill="#BBCEE1"/>
<path d="M15.6241 316.546L-67.304 364.134L23.9169 416.828L106.941 369.176L15.6241 316.546Z" fill="#FFFDFA"/>
<path d="M106.942 369.175L23.9172 416.827L23.9494 429.511L106.942 381.538V369.175Z" fill="#A7BCCE"/>
<path d="M139.406 330.868C135.806 326.18 129.763 322.166 119.317 324.863L8.97095 346.12L13.1816 374.41C18.7169 381.015 26.0742 385.849 34.3381 388.31C42.6021 390.771 51.4078 390.75 59.6599 388.249C76.9948 383.428 93.461 375.907 108.453 365.965L104.724 444.09C115.727 447.071 127.459 445.666 137.445 440.172C140.049 438.599 142.459 363.267 143.231 343.841C143.726 339.181 142.35 334.515 139.406 330.868Z" fill="black"/>
<g filter="url(#filter0_dddd_234_1135)">
<path d="M-57.7576 171.407L130.663 62.2307C134.572 59.976 139.006 58.7891 143.52 58.7891C148.034 58.7891 152.468 59.976 156.377 62.2307L453.182 233.765C454.912 234.759 456.348 236.191 457.347 237.916C458.346 239.641 458.872 241.598 458.872 243.591C458.872 245.584 458.346 247.542 457.347 249.267C456.348 250.992 454.912 252.424 453.182 253.417L268.973 360.249C264.308 362.947 259.014 364.367 253.625 364.367C248.235 364.367 242.941 362.947 238.276 360.249L-57.854 189.1C-59.4213 188.209 -60.723 186.917 -61.6252 185.358C-62.5275 183.798 -62.9979 182.026 -62.9881 180.225C-62.9783 178.424 -62.4886 176.657 -61.5693 175.107C-60.6501 173.558 -59.3345 172.28 -57.7576 171.407Z" fill="#E8EBF5"/>
<path d="M-57.7249 189.003L238.405 360.152C243.07 362.85 248.364 364.271 253.754 364.271C259.143 364.271 264.437 362.85 269.102 360.152L453.311 253.321C455.011 252.344 456.426 250.942 457.418 249.253C458.41 247.564 458.945 245.646 458.969 243.687V258.009C458.957 259.966 458.432 261.886 457.445 263.576C456.458 265.267 455.043 266.669 453.344 267.642L269.102 374.41C264.437 377.107 259.143 378.528 253.754 378.528C248.364 378.528 243.07 377.107 238.405 374.41L-57.7249 203.26C-59.2931 202.367 -60.5939 201.072 -61.4924 199.508C-62.391 197.944 -62.8547 196.169 -62.8356 194.365V180.301C-62.8304 182.073 -62.3547 183.813 -61.4568 185.342C-60.559 186.87 -59.2712 188.134 -57.7249 189.003Z" fill="#A7BCCE"/>
</g>
<path d="M-57.7249 189.003L238.405 360.152C242.681 362.607 247.491 363.985 252.42 364.166V378.359C247.494 378.162 242.687 376.786 238.405 374.345L-57.7249 203.196C-59.2931 202.303 -60.5939 201.008 -61.4924 199.444C-62.391 197.88 -62.8547 196.104 -62.8356 194.301V180.237C-62.8418 182.02 -62.3715 183.773 -61.473 185.314C-60.5746 186.855 -59.2807 188.129 -57.7249 189.003Z" fill="#BBCEE1"/>
<path d="M81.4524 210.902L113.434 192.439C114.172 192.013 115.009 191.789 115.861 191.789C116.713 191.789 117.55 192.013 118.288 192.439L217.062 249.499C217.382 249.69 217.647 249.961 217.83 250.285C218.014 250.608 218.111 250.974 218.111 251.346C218.111 251.718 218.014 252.084 217.83 252.407C217.647 252.731 217.382 253.001 217.062 253.192L185.852 271.206C184.977 271.711 183.985 271.976 182.975 271.976C181.965 271.976 180.973 271.711 180.098 271.206L81.4524 214.242C81.1666 214.067 80.9305 213.821 80.7667 213.529C80.6029 213.237 80.5168 212.907 80.5168 212.572C80.5168 212.237 80.6029 211.908 80.7667 211.616C80.9305 211.323 81.1666 211.078 81.4524 210.902Z" fill="#0F4463"/>
<path d="M81.4524 214.242L180.098 271.206C180.973 271.711 181.965 271.976 182.975 271.976C183.985 271.976 184.977 271.711 185.852 271.206L217.062 253.192C217.389 253.004 217.659 252.732 217.846 252.405C218.032 252.077 218.128 251.706 218.123 251.33V255.119C218.11 255.487 218.007 255.847 217.822 256.166C217.637 256.486 217.376 256.754 217.062 256.949L185.852 274.867C184.977 275.371 183.985 275.637 182.975 275.637C181.965 275.637 180.973 275.371 180.098 274.867L81.4524 218.031C81.1581 217.866 80.9152 217.622 80.7507 217.327C80.5862 217.033 80.5066 216.698 80.5203 216.361V212.572C80.52 212.907 80.6054 213.236 80.7686 213.528C80.9318 213.821 81.1672 214.066 81.4524 214.242Z" fill="#0B3B56"/>
<path d="M113.081 197.609L117.067 195.297L121.631 197.898L117.645 200.21L113.081 197.609Z" fill="#1F5E77"/>
<path d="M118.738 200.884L122.756 198.54L127.288 201.173L123.302 203.485L118.738 200.884Z" fill="#1F5E77"/>
<path d="M124.427 204.127L128.413 201.815L132.977 204.448L128.992 206.76L124.427 204.127Z" fill="#1F5E77"/>
<path d="M130.085 207.402L134.103 205.09L138.667 207.691L134.649 210.003L130.085 207.402Z" fill="#1F5E77"/>
<path d="M135.774 210.678L139.792 208.333L144.324 210.967L140.338 213.279L135.774 210.678Z" fill="#1F5E77"/>
<path d="M141.463 213.921L145.449 211.609L150.013 214.242L146.027 216.554L141.463 213.921Z" fill="#1F5E77"/>
<path d="M147.12 217.196L151.137 214.884L155.67 217.485L151.684 219.797L147.12 217.196Z" fill="#1F5E77"/>
<path d="M152.809 220.471L156.795 218.127L161.359 220.76L157.374 223.072L152.809 220.471Z" fill="#1F5E77"/>
<path d="M158.466 223.715L162.484 221.403L167.016 224.036L163.031 226.348L158.466 223.715Z" fill="#1F5E77"/>
<path d="M164.155 226.99L168.173 224.678L172.705 227.279L168.72 229.591L164.155 226.99Z" fill="#1F5E77"/>
<path d="M169.845 230.233L173.831 227.921L178.395 230.554L174.409 232.866L169.845 230.233Z" fill="#1F5E77"/>
<path d="M175.502 233.508L179.52 231.196L184.052 233.829L180.066 236.109L175.502 233.508Z" fill="#1F5E77"/>
<path d="M185.177 234.439L189.741 237.072L185.755 239.384L181.191 236.784L185.177 234.439Z" fill="#1F5E77"/>
<path d="M112.438 203.228L107.906 200.595L111.892 198.283L116.456 200.916L112.438 203.228Z" fill="#1F5E77"/>
<path d="M122.113 204.159L118.127 206.471L113.563 203.87L117.581 201.558L122.113 204.159Z" fill="#1F5E77"/>
<path d="M127.802 207.434L123.816 209.746L119.252 207.145L123.238 204.801L127.802 207.434Z" fill="#1F5E77"/>
<path d="M133.459 210.71L129.473 213.022L124.909 210.389L128.927 208.077L133.459 210.71Z" fill="#1F5E77"/>
<path d="M139.149 213.953L135.163 216.265L130.599 213.664L134.585 211.352L139.149 213.953Z" fill="#1F5E77"/>
<path d="M144.838 217.228L140.82 219.54L136.256 216.939L140.274 214.595L144.838 217.228Z" fill="#1F5E77"/>
<path d="M150.495 220.504L146.509 222.816L141.945 220.183L145.963 217.871L150.495 220.504Z" fill="#1F5E77"/>
<path d="M156.184 223.747L152.199 226.059L147.635 223.458L151.62 221.146L156.184 223.747Z" fill="#1F5E77"/>
<path d="M161.841 227.022L157.856 229.334L153.292 226.733L157.309 224.389L161.841 227.022Z" fill="#1F5E77"/>
<path d="M167.53 230.297L163.545 232.609L158.98 229.976L162.966 227.664L167.53 230.297Z" fill="#1F5E77"/>
<path d="M173.22 233.54L169.202 235.852L164.638 233.251L168.656 230.939L173.22 233.54Z" fill="#1F5E77"/>
<path d="M178.877 236.815L174.891 239.127L170.327 236.526L174.313 234.182L178.877 236.815Z" fill="#1F5E77"/>
<path d="M180.002 237.458L184.566 240.059L180.58 242.403L176.016 239.77L180.002 237.458Z" fill="#1F5E77"/>
<path d="M107.263 206.215L102.699 203.614L106.717 201.302L111.249 203.903L107.263 206.215Z" fill="#1F5E77"/>
<path d="M116.938 207.178L112.952 209.489L108.388 206.856L112.374 204.544L116.938 207.178Z" fill="#1F5E77"/>
<path d="M114.045 210.132L118.063 207.82L122.627 210.421L118.609 212.733L114.045 210.132Z" fill="#1F5E77"/>
<path d="M128.284 213.696L124.299 216.008L119.734 213.407L123.752 211.063L128.284 213.696Z" fill="#1F5E77"/>
<path d="M133.974 216.971L129.988 219.283L125.424 216.65L129.409 214.338L133.974 216.971Z" fill="#1F5E77"/>
<path d="M139.631 220.215L135.645 222.527L131.081 219.926L135.099 217.614L139.631 220.215Z" fill="#1F5E77"/>
<path d="M145.32 223.49L141.334 225.802L136.77 223.201L140.756 220.857L145.32 223.49Z" fill="#1F5E77"/>
<path d="M151.009 226.765L146.991 229.077L142.427 226.444L146.445 224.132L151.009 226.765Z" fill="#1F5E77"/>
<path d="M156.666 230.009L152.681 232.321L148.116 229.72L152.134 227.408L156.666 230.009Z" fill="#1F5E77"/>
<path d="M162.356 233.284L158.37 235.596L153.806 232.995L157.791 230.651L162.356 233.284Z" fill="#1F5E77"/>
<path d="M168.013 236.559L164.027 238.871L159.463 236.238L163.481 233.926L168.013 236.559Z" fill="#1F5E77"/>
<path d="M165.152 239.513L169.138 237.201L173.702 239.802L169.716 242.114L165.152 239.513Z" fill="#1F5E77"/>
<path d="M174.827 240.445L179.391 243.078L175.373 245.39L170.809 242.757L174.827 240.445Z" fill="#1F5E77"/>
<path d="M102.088 209.233L97.5237 206.6L101.542 204.288L106.074 206.921L102.088 209.233Z" fill="#1F5E77"/>
<path d="M103.213 209.875L107.199 207.531L111.763 210.164L107.777 212.476L103.213 209.875Z" fill="#1F5E77"/>
<path d="M108.87 213.118L112.888 210.806L117.42 213.439L113.435 215.751L108.87 213.118Z" fill="#1F5E77"/>
<path d="M114.559 216.393L118.577 214.081L123.109 216.682L119.124 218.994L114.559 216.393Z" fill="#1F5E77"/>
<path d="M120.217 219.669L124.234 217.325L128.799 219.958L124.781 222.27L120.217 219.669Z" fill="#1F5E77"/>
<path d="M125.906 222.912L129.924 220.6L134.456 223.233L130.47 225.545L125.906 222.912Z" fill="#1F5E77"/>
<path d="M131.595 226.187L135.581 223.875L140.145 226.476L136.159 228.788L131.595 226.187Z" fill="#1F5E77"/>
<path d="M137.252 229.462L141.27 227.118L145.802 229.751L141.816 232.063L137.252 229.462Z" fill="#1F5E77"/>
<path d="M142.942 232.706L146.927 230.394L151.492 233.027L147.506 235.339L142.942 232.706Z" fill="#1F5E77"/>
<path d="M148.598 235.981L152.616 233.669L157.18 236.27L153.163 238.582L148.598 235.981Z" fill="#1F5E77"/>
<path d="M154.288 239.256L158.306 236.912L162.838 239.545L158.852 241.857L154.288 239.256Z" fill="#1F5E77"/>
<path d="M159.977 242.499L163.963 240.187L168.527 242.82L164.541 245.132L159.977 242.499Z" fill="#1F5E77"/>
<path d="M169.652 243.463L174.184 246.064L170.198 248.376L165.634 245.775L169.652 243.463Z" fill="#1F5E77"/>
<path d="M96.9131 212.219L92.3489 209.618L96.3667 207.274L100.899 209.907L96.9131 212.219Z" fill="#1F5E77"/>
<path d="M98.0061 212.861L102.024 210.549L106.588 213.15L102.603 215.462L98.0061 212.861Z" fill="#1F5E77"/>
<path d="M103.695 216.136L107.713 213.824L112.245 216.425L108.26 218.737L103.695 216.136Z" fill="#1F5E77"/>
<path d="M109.385 219.38L113.37 217.068L117.934 219.701L113.949 222.013L109.385 219.38Z" fill="#1F5E77"/>
<path d="M115.042 222.655L119.06 220.343L123.592 222.976L119.606 225.288L115.042 222.655Z" fill="#1F5E77"/>
<path d="M120.731 225.93L124.749 223.586L129.281 226.219L125.295 228.531L120.731 225.93Z" fill="#1F5E77"/>
<path d="M126.388 229.173L130.406 226.861L134.97 229.494L130.952 231.806L126.388 229.173Z" fill="#1F5E77"/>
<path d="M132.077 232.448L136.095 230.136L140.627 232.737L136.642 235.049L132.077 232.448Z" fill="#1F5E77"/>
<path d="M137.766 235.724L141.752 233.38L146.316 236.013L142.33 238.325L137.766 235.724Z" fill="#1F5E77"/>
<path d="M143.423 238.967L147.441 236.655L151.973 239.288L147.988 241.6L143.423 238.967Z" fill="#1F5E77"/>
<path d="M149.113 242.242L153.099 239.93L157.663 242.531L153.677 244.843L149.113 242.242Z" fill="#1F5E77"/>
<path d="M154.77 245.518L158.788 243.174L163.352 245.807L159.334 248.119L154.77 245.518Z" fill="#1F5E77"/>
<path d="M164.477 246.449L169.009 249.082L165.023 251.394L160.459 248.761L164.477 246.449Z" fill="#1F5E77"/>
<path d="M91.1595 210.292L95.7238 212.893L91.7381 215.205L87.1738 212.604L91.1595 210.292Z" fill="#1F5E77"/>
<path d="M101.381 216.168L97.3951 218.48L92.8308 215.847L96.8486 213.535L101.381 216.168Z" fill="#1F5E77"/>
<path d="M107.07 219.444L103.085 221.756L98.5205 219.123L102.506 216.811L107.07 219.444Z" fill="#1F5E77"/>
<path d="M112.759 222.687L108.774 224.999L104.209 222.398L108.195 220.054L112.759 222.687Z" fill="#1F5E77"/>
<path d="M118.416 225.962L114.431 228.274L109.866 225.641L113.884 223.329L118.416 225.962Z" fill="#1F5E77"/>
<path d="M124.106 229.206L120.12 231.518L115.556 228.917L119.541 226.605L124.106 229.206Z" fill="#1F5E77"/>
<path d="M125.231 229.88L130.888 233.123H130.92L132.013 233.765L136.577 236.398L138.891 237.715L142.266 239.642L145.834 241.729L152.488 245.55L148.502 247.862L141.559 243.848L138.249 241.986L134.809 239.995L132.559 238.71H132.591L128.091 236.141L126.902 235.435L121.213 232.192L125.231 229.88Z" fill="#1F5E77"/>
<path d="M158.145 248.793L154.159 251.105L149.595 248.504L153.613 246.192L158.145 248.793Z" fill="#1F5E77"/>
<path d="M163.834 252.068L159.848 254.38L155.284 251.779L159.27 249.435L163.834 252.068Z" fill="#1F5E77"/>
<path d="M192.538 243.302L196.523 240.99L201.088 243.591L197.102 245.903L192.538 243.302Z" fill="#1F5E77"/>
<path d="M198.227 246.577L202.212 244.233L206.777 246.866L202.759 249.178L198.227 246.577Z" fill="#1F5E77"/>
<path d="M203.884 249.821L207.902 247.509L212.434 250.142L208.448 252.454L203.884 249.821Z" fill="#1F5E77"/>
<path d="M195.913 246.609L191.927 248.921L187.363 246.288L191.348 243.976L195.913 246.609Z" fill="#1F5E77"/>
<path d="M201.57 249.852L197.584 252.164L193.02 249.563L197.038 247.251L201.57 249.852Z" fill="#1F5E77"/>
<path d="M207.259 253.128L203.273 255.44L198.709 252.839L202.695 250.495L207.259 253.128Z" fill="#1F5E77"/>
<path d="M190.737 249.596L186.72 251.908L182.188 249.307L186.173 246.963L190.737 249.596Z" fill="#1F5E77"/>
<path d="M196.394 252.871L192.409 255.183L187.844 252.55L191.862 250.238L196.394 252.871Z" fill="#1F5E77"/>
<path d="M202.084 256.114L198.098 258.426L193.534 255.825L197.52 253.513L202.084 256.114Z" fill="#1F5E77"/>
<path d="M176.98 252.293L180.998 249.981L185.563 252.582L181.545 254.894L176.98 252.293Z" fill="#1F5E77"/>
<path d="M182.67 255.569L186.655 253.225L191.22 255.858L187.234 258.17L182.67 255.569Z" fill="#1F5E77"/>
<path d="M188.327 258.811L192.345 256.5L196.909 259.133L192.891 261.445L188.327 258.811Z" fill="#1F5E77"/>
<path d="M171.806 255.279L175.823 252.967L180.356 255.6L176.37 257.912L171.806 255.279Z" fill="#1F5E77"/>
<path d="M177.495 258.555L181.48 256.243L186.045 258.844L182.059 261.156L177.495 258.555Z" fill="#1F5E77"/>
<path d="M183.152 261.83L187.17 259.486L191.734 262.119L187.716 264.431L183.152 261.83Z" fill="#1F5E77"/>
<path d="M175.181 258.587L171.195 260.899L166.631 258.298L170.648 255.986L175.181 258.587Z" fill="#1F5E77"/>
<path d="M180.87 261.862L176.884 264.174L172.32 261.541L176.306 259.229L180.87 261.862Z" fill="#1F5E77"/>
<path d="M152.391 180.269L183.859 162.03C184.51 161.643 185.254 161.438 186.012 161.438C186.771 161.438 187.515 161.643 188.166 162.03L262.801 205.09C263.074 205.261 263.298 205.498 263.454 205.778C263.609 206.059 263.691 206.375 263.691 206.696C263.691 207.017 263.609 207.333 263.454 207.613C263.298 207.894 263.074 208.131 262.801 208.301L232.041 226.123C231.267 226.581 230.385 226.822 229.485 226.822C228.586 226.822 227.704 226.581 226.93 226.123L152.391 183.159C152.145 183.006 151.943 182.793 151.802 182.54C151.661 182.288 151.588 182.003 151.588 181.714C151.588 181.425 151.661 181.14 151.802 180.887C151.943 180.635 152.145 180.422 152.391 180.269Z" fill="#1F5E77"/>
<path d="M152.391 183.191L226.93 226.155C227.704 226.613 228.586 226.854 229.485 226.854C230.385 226.854 231.267 226.613 232.041 226.155L262.801 208.334C263.084 208.163 263.318 207.923 263.481 207.636C263.645 207.35 263.731 207.026 263.733 206.696V210.646C263.732 210.971 263.645 211.291 263.482 211.573C263.318 211.854 263.084 212.088 262.801 212.251L232.041 229.912C231.264 230.36 230.383 230.596 229.485 230.596C228.588 230.596 227.707 230.36 226.93 229.912L152.391 186.916C152.135 186.764 151.923 186.548 151.776 186.289C151.629 186.03 151.553 185.737 151.555 185.439V181.746C151.559 182.038 151.638 182.325 151.784 182.578C151.93 182.831 152.139 183.042 152.391 183.191Z" fill="#07304B"/>
<path d="M152.391 183.191L226.93 226.155C227.634 226.567 228.429 226.799 229.244 226.829V230.651C228.432 230.631 227.637 230.41 226.93 230.008L152.391 187.012C152.135 186.861 151.923 186.644 151.776 186.385C151.629 186.126 151.553 185.833 151.555 185.535V181.746C151.559 182.038 151.638 182.325 151.784 182.578C151.93 182.831 152.139 183.042 152.391 183.191Z" fill="#0B3B56"/>
<path d="M234.001 183.127L176.016 149.571V178.278L234.001 211.801V183.127Z" fill="#0F4463"/>
<path d="M184.084 144.947L176.016 149.571L234.001 183.127L242.101 178.471L184.084 144.947Z" fill="#07304B"/>
<path d="M242.102 178.471L234.002 183.127V211.802L242.102 207.113V178.471Z" fill="#07304B"/>
<path d="M117.356 3.46802L293.69 105.644V235.242L117.356 132.681V3.46802Z" fill="url(#paint0_linear_234_1135)"/>
<path d="M293.691 105.644L299.541 102.08V231.71L293.691 235.242V105.644Z" fill="#07304B"/>
<path d="M117.356 3.46795L123.366 0L299.54 102.08L293.69 105.644L117.356 3.46795Z" fill="#1F5E77"/>
<path d="M117.356 3.50024V132.713L293.69 235.275V105.644L117.356 3.50024ZM289.608 228.018L121.534 130.369V10.7251L289.608 108.052V228.018Z" fill="#0B3B56"/>
<path d="M52.0741 163.507C50.2419 182.035 36.5813 195.842 21.5385 194.365C6.49578 192.888 -4.17556 176.672 -2.34343 158.145C-0.511299 139.617 13.1493 125.841 28.1599 127.318C43.1706 128.796 53.9062 145.011 52.0741 163.507Z" fill="#FED4BD"/>
<path d="M74.5417 206.664C74.5417 206.664 80.9702 208.237 83.3488 208.462C85.7273 208.687 94.213 210.485 97.7166 209.425C101.22 208.366 94.5023 206.022 92.9916 204.833C91.4809 203.645 91.4488 200.595 94.9845 199.535C98.5202 198.476 106.556 198.957 110.799 198.347C115.041 197.737 106.588 184.925 99.6773 183.737C93.2568 182.449 86.5894 183.354 80.7452 186.306C74.8631 189.196 71.6489 194.109 68.9167 195.04L74.5417 206.664Z" fill="#F4C5A2"/>
<path d="M75.3134 189.195L30.6031 200.402L28.353 228.756L81.1313 210.645C82.2242 200.659 75.3134 189.195 75.3134 189.195Z" fill="#78D9AB"/>
<path d="M1.70653 183.03C1.70653 183.03 20.9921 181.714 36.067 192.246C36.9126 194.347 38.3538 196.155 40.2135 197.448C43.2349 199.471 58.2455 205.476 58.2455 205.476C58.2455 205.476 51.6241 293.362 59.2098 336.166C59.2098 336.166 26.6493 361.565 -24.3611 336.166C-24.3611 336.166 -31.7861 228.242 -35.0647 201.301C-35.0326 201.205 -26.4505 190.737 1.70653 183.03Z" fill="#1DBF73"/>
<path d="M-6.77911 328.106L-98 275.412L-67.3038 364.262L23.9493 416.827L-6.77911 328.106Z" fill="#BBCEE1"/>
<path d="M-87.9393 269.568L-98 275.413L-6.77911 328.106L3.41011 322.198L-87.9393 269.568Z" fill="#FFFDFA"/>
<path d="M3.40993 322.198L-6.7793 328.106L23.9491 416.828L34.2347 410.92L3.40993 322.198Z" fill="#A7BCCE"/>
<path d="M134.649 245.614C134.649 245.614 139.631 240.605 141.527 239.192C143.424 237.779 150.109 231.453 153.87 230.618C157.631 229.783 151.234 236.302 150.431 238.325C149.627 240.348 154.288 236.687 157.791 235.371C161.7 234.087 165.939 234.235 169.748 235.788C178.395 238.999 177.977 256.114 170.906 254.091C159.302 250.88 154.095 259.935 147.152 261.862C143.931 262.694 140.655 263.295 137.349 263.66L134.649 245.614Z" fill="#F4C5A2"/>
<path d="M58.1815 205.476L95.8849 255.408L135.099 243.848C135.099 243.848 143.52 254.444 140.788 265.651L88.4599 286.009L45.9351 239.288C45.9351 239.288 31.7602 209.618 58.1815 205.476Z" fill="#56CF96"/>
<path d="M37.2243 111.488C37.2243 111.488 40.1171 118.456 26.2315 120.351C12.3458 122.245 -4.78619 129.117 -9.3183 143.759C-12.2111 153.103 -8.86835 163.026 -4.14338 171.31C-2.5618 174.149 -0.721831 176.836 1.35309 179.338C8.37749 180.645 15.6383 179.404 21.8279 175.838C26.5579 172.344 30.3461 167.732 32.8529 162.415C32.8529 162.415 41.1135 165.851 43.6849 158.98C45.5813 153.906 51.5599 152.557 54.8064 149.892C54.9671 149.892 73.5455 119.291 37.2243 111.488Z" fill="#9D4D36"/>
<path d="M139.309 30.4087V33.8445L153.774 42.1612V38.7253L139.309 30.4087Z" fill="#F5D012"/>
<path d="M139.309 36.6704V40.1062L153.774 48.455V45.0192L139.309 36.6704Z" fill="#FFFDFA"/>
<path d="M139.309 42.9641V46.3999L153.774 54.7166V51.2807L139.309 42.9641Z" fill="#FFFDFA"/>
<path d="M248.402 115.534V112.098L159.174 60.6887V64.1246L248.402 115.534Z" fill="#FFFDFA"/>
<path d="M139.309 49.2256V52.6614L153.774 61.0102V57.5743L139.309 49.2256Z" fill="#FFFDFA"/>
<path d="M139.309 55.5193V58.9551L153.774 67.2718V63.8359L139.309 55.5193Z" fill="#FFFDFA"/>
<path d="M248.402 121.796V118.36L159.174 66.9829V70.3866L248.402 121.796Z" fill="#50E85E"/>
<path d="M139.309 74.3362V77.772L153.774 86.1208V82.6849L139.309 74.3362Z" fill="#FFFDFA"/>
<path d="M139.309 80.6299V84.0657L153.774 92.3824V88.9465L139.309 80.6299Z" fill="#F5D012"/>
<path d="M139.309 105.74V109.176L153.774 117.525V114.057L139.309 105.74Z" fill="#FFFDFA"/>
<path d="M139.309 112.034V115.47L153.774 123.786V120.351L139.309 112.034Z" fill="#FFFDFA"/>
<path d="M215.455 155.897L159.174 123.465V126.901L215.455 159.333V155.897Z" fill="#50E85E"/>
<path d="M218.412 157.599V161.067L248.401 178.31V174.874L218.412 157.599Z" fill="#FFFDFA"/>
<path d="M187.459 133.484L159.174 117.204V120.639L187.459 136.92V133.484Z" fill="#FFFDFA"/>
<path d="M190.416 135.218V138.622L248.402 172.049V168.613L190.416 135.218Z" fill="#FFFDFA"/>
<path d="M240.752 145.365V148.801L248.402 153.2V149.764L240.752 145.365Z" fill="#FFFDFA"/>
<path d="M199.255 115.181L159.174 92.093V95.5289L199.255 118.616V115.181Z" fill="#ED5561"/>
<path d="M182.831 55.4871L159.174 41.8401V45.2759L182.831 58.9229V55.4871Z" fill="#FFFDFA"/>
<path d="M221.627 77.8361L185.82 57.189V60.6248L221.627 81.2719V77.8361Z" fill="#FFFDFA"/>
<path d="M200.734 72.0881L175.534 57.542V60.9778L200.734 75.5239V72.0881Z" fill="#FFFDFA"/>
<path d="M227.219 87.3086L203.723 73.79V77.2259L227.219 90.7765V87.3086Z" fill="#ED5561"/>
<path d="M230.177 89.043V92.4788L248.402 102.979V99.5431L230.177 89.043Z" fill="#FFFDFA"/>
<path d="M163.834 57.0925V60.5284L182.831 71.4781V68.0423L163.834 57.0925Z" fill="#ED5561"/>
<path d="M240.944 101.534L185.82 69.7444V73.1802L240.944 104.97V101.534Z" fill="#FFFDFA"/>
<path d="M209.38 102.176L173.348 81.4004V84.8362L209.38 105.612V102.176Z" fill="#FFFDFA"/>
<path d="M240.945 120.35L212.338 103.878V107.314L240.945 123.786V120.35Z" fill="#FFFDFA"/>
<path d="M237.794 137.369L202.245 116.883V120.319L237.794 140.805V137.369Z" fill="#FFFDFA"/>
<path d="M218.412 132.488V135.924L237.794 147.099V143.663L218.412 132.488Z" fill="#50E85E"/>
<path d="M166.149 102.369L159.174 98.3547V101.791L166.149 105.804V102.369Z" fill="#FFFDFA"/>
<path d="M179.23 109.915V113.35L215.455 134.222V130.786L179.23 109.915Z" fill="#FFFDFA"/>
<path d="M176.273 108.213L169.138 104.103V107.539L176.273 111.649V108.213Z" fill="#FFFDFA"/>
<path d="M208.77 133.195L169.138 110.364V113.8L208.77 136.63V133.195Z" fill="#FFFDFA"/>
<path d="M254.669 96.9097V97.8409L258.655 100.153V99.1895L254.669 96.9097Z" fill="#FFFDFA"/>
<path d="M254.669 98.6438V99.575L258.655 101.887V100.924L254.669 98.6438Z" fill="#FFFDFA"/>
<path d="M254.669 100.378V101.309L258.655 103.621V102.658L254.669 100.378Z" fill="#FFFDFA"/>
<path d="M284.722 120.351V119.419L260.133 105.259V106.19L284.722 120.351Z" fill="#FFFDFA"/>
<path d="M254.669 102.112V103.043L258.655 105.323V104.391L254.669 102.112Z" fill="#FFFDFA"/>
<path d="M254.669 103.814V104.777L258.655 107.057V106.126L254.669 103.814Z" fill="#FFFDFA"/>
<path d="M284.722 122.084V121.153L260.133 106.992V107.924L284.722 122.084Z" fill="#FFFDFA"/>
<path d="M254.669 109.015V109.979L258.655 112.259V111.327L254.669 109.015Z" fill="#FFFDFA"/>
<path d="M254.669 110.75V111.681L258.655 113.993V113.029L254.669 110.75Z" fill="#FFFDFA"/>
<path d="M254.669 117.653V118.617L258.655 120.929V119.965L254.669 117.653Z" fill="#FFFDFA"/>
<path d="M254.669 119.387V120.351L258.655 122.63V121.699L254.669 119.387Z" fill="#FFFDFA"/>
<path d="M275.658 131.493L260.133 122.566V123.497L275.658 132.424V131.493Z" fill="#FFFDFA"/>
<path d="M276.462 131.975V132.906L284.723 137.658V136.727L276.462 131.975Z" fill="#FFFDFA"/>
<path d="M267.944 125.328L260.133 120.832V121.763L267.944 126.259V125.328Z" fill="#FFFDFA"/>
<path d="M268.748 125.777V126.741L284.723 135.924V134.993L268.748 125.777Z" fill="#FFFDFA"/>
<path d="M282.634 128.603V129.534L284.723 130.754V129.791L282.634 128.603Z" fill="#FFFDFA"/>
<path d="M271.19 120.254L260.133 113.896V114.86L271.19 121.217V120.254Z" fill="#FFFDFA"/>
<path d="M266.658 103.813L260.133 100.056V101.02L266.658 104.777V103.813Z" fill="#FFFDFA"/>
<path d="M277.362 109.979L267.462 104.295V105.227L277.362 110.91V109.979Z" fill="#FFFDFA"/>
<path d="M271.577 108.405L264.634 104.392V105.323L271.577 109.337V108.405Z" fill="#FFFDFA"/>
<path d="M278.873 112.58L272.412 108.855V109.818L278.873 113.543V112.58Z" fill="#FFFDFA"/>
<path d="M279.708 113.061V114.025L284.723 116.915V115.951L279.708 113.061Z" fill="#FFFDFA"/>
<path d="M261.419 104.263V105.226L266.658 108.213V107.281L261.419 104.263Z" fill="#FFFDFA"/>
<path d="M282.665 116.497L267.462 107.763V108.694L282.665 117.461V116.497Z" fill="#FFFDFA"/>
<path d="M273.955 116.69L264.055 110.974V111.905L273.955 117.621V116.69Z" fill="#FFFDFA"/>
<path d="M282.666 121.699L274.791 117.172V118.103L282.666 122.63V121.699Z" fill="#FFFDFA"/>
<path d="M281.798 126.387L271.994 120.736V121.699L281.798 127.35V126.387Z" fill="#FFFDFA"/>
<path d="M276.462 125.039V126.002L281.798 129.053V128.121L276.462 125.039Z" fill="#FFFDFA"/>
<path d="M262.062 116.754L260.133 115.63V116.594L262.062 117.685V116.754Z" fill="#FFFDFA"/>
<path d="M265.662 118.809V119.772L275.659 125.52V124.557L265.662 118.809Z" fill="#FFFDFA"/>
<path d="M264.859 118.36L262.866 117.204V118.167L264.859 119.291V118.36Z" fill="#FFFDFA"/>
<path d="M273.794 125.231L262.866 118.938V119.901L273.794 126.195V125.231Z" fill="#FFFDFA"/>
<path d="M254.669 126.195V127.126L258.655 129.438V128.475L254.669 126.195Z" fill="#FFFDFA"/>
<path d="M254.669 127.896V128.86L258.655 131.172V130.208L254.669 127.896Z" fill="#FFFDFA"/>
<path d="M254.669 129.631V130.594L258.655 132.874V131.943L254.669 129.631Z" fill="#FFFDFA"/>
<path d="M284.722 149.635V148.704L260.133 134.543V135.475L284.722 149.635Z" fill="#FFFDFA"/>
<path d="M254.669 131.365V132.328L258.655 134.608V133.676L254.669 131.365Z" fill="#FFFDFA"/>
<path d="M254.669 133.098V134.062L258.655 136.342V135.41L254.669 133.098Z" fill="#FFFDFA"/>
<path d="M284.722 151.369V150.438L260.133 136.245V137.208L284.722 151.369Z" fill="#FFFDFA"/>
<path d="M254.669 138.301V139.232L258.655 141.544V140.58L254.669 138.301Z" fill="#FFFDFA"/>
<path d="M254.669 140.034V140.965L258.655 143.277V142.314L254.669 140.034Z" fill="#FFFDFA"/>
<path d="M254.669 146.938V147.902L258.655 150.181V149.25L254.669 146.938Z" fill="#FFFDFA"/>
<path d="M254.669 148.672V149.635L258.655 151.915V150.984L254.669 148.672Z" fill="#FFFDFA"/>
<path d="M275.658 160.778L260.133 151.819V152.782L275.658 161.709V160.778Z" fill="#FFFDFA"/>
<path d="M276.462 161.227V162.191L284.723 166.943V165.98L276.462 161.227Z" fill="#FFFDFA"/>
<path d="M267.944 154.581L260.133 150.117V151.048L267.944 155.544V154.581Z" fill="#FFFDFA"/>
<path d="M268.748 155.062V155.993L284.723 165.209V164.278L268.748 155.062Z" fill="#FFFDFA"/>
<path d="M282.634 157.856V158.819L284.723 160.007V159.076L282.634 157.856Z" fill="#FFFDFA"/>
<path d="M271.19 149.539L260.133 143.181V144.112L271.19 150.502V149.539Z" fill="#FFFDFA"/>
<path d="M266.658 133.099L260.133 129.342V130.273L266.658 134.03V133.099Z" fill="#FFFDFA"/>
<path d="M277.362 139.264L267.462 133.58V134.511L277.362 140.195V139.264Z" fill="#FFFDFA"/>
<path d="M271.577 137.658L264.634 133.676V134.607L271.577 138.621V137.658Z" fill="#FFFDFA"/>
<path d="M278.873 141.865L272.412 138.14V139.103L278.873 142.828V141.865Z" fill="#FFFDFA"/>
<path d="M279.708 142.346V143.278L284.723 146.168V145.236L279.708 142.346Z" fill="#FFFDFA"/>
<path d="M261.419 133.548V134.479L266.658 137.498V136.566L261.419 133.548Z" fill="#FFFDFA"/>
<path d="M282.665 145.782L267.462 137.016V137.979L282.665 146.713V145.782Z" fill="#FFFDFA"/>
<path d="M273.955 145.975L264.055 140.227V141.191L273.955 146.906V145.975Z" fill="#FFFDFA"/>
<path d="M282.666 150.984L274.791 146.424V147.388L282.666 151.915V150.984Z" fill="#FFFDFA"/>
<path d="M281.798 155.672L271.994 150.021V150.952L281.798 156.603V155.672Z" fill="#FFFDFA"/>
<path d="M276.462 154.323V155.255L281.798 158.337V157.406L276.462 154.323Z" fill="#FFFDFA"/>
<path d="M262.062 146.007L260.133 144.915V145.846L262.062 146.97V146.007Z" fill="#FFFDFA"/>
<path d="M265.662 148.094V149.025L275.659 154.805V153.842L265.662 148.094Z" fill="#FFFDFA"/>
<path d="M264.859 147.612L262.866 146.489V147.42L264.859 148.576V147.612Z" fill="#FFFDFA"/>
<path d="M273.794 154.516L262.866 148.222V149.154L273.794 155.447V154.516Z" fill="#FFFDFA"/>
<path d="M254.669 155.448V156.411L258.655 158.691V157.759L254.669 155.448Z" fill="#FFFDFA"/>
<path d="M254.669 157.181V158.145L258.655 160.425V159.493L254.669 157.181Z" fill="#FFFDFA"/>
<path d="M254.669 158.915V159.879L258.655 162.158V161.227L254.669 158.915Z" fill="#FFFDFA"/>
<path d="M284.722 178.92V177.957L260.133 163.796V164.759L284.722 178.92Z" fill="#FFFDFA"/>
<path d="M254.669 160.649V161.613L258.655 163.893V162.961L254.669 160.649Z" fill="#FFFDFA"/>
<path d="M254.669 162.383V163.315L258.655 165.626V164.663L254.669 162.383Z" fill="#FFFDFA"/>
<path d="M284.722 180.654V179.691L260.133 165.53V166.493L284.722 180.654Z" fill="#FFFDFA"/>
<path d="M254.669 167.585V168.516L258.655 170.796V169.865L254.669 167.585Z" fill="#FFFDFA"/>
<path d="M254.669 169.287V170.25L258.655 172.53V171.599L254.669 169.287Z" fill="#FFFDFA"/>
<path d="M254.669 176.223V177.154L258.655 179.466V178.503L254.669 176.223Z" fill="#FFFDFA"/>
<path d="M254.669 177.957V178.888L258.655 181.2V180.237L254.669 177.957Z" fill="#FFFDFA"/>
<path d="M275.658 190.031L260.133 181.104V182.067L275.658 190.994V190.031Z" fill="#FFFDFA"/>
<path d="M276.462 190.512V191.476L284.723 196.228V195.265L276.462 190.512Z" fill="#FFFDFA"/>
<path d="M267.944 183.865L260.133 179.37V180.333L267.944 184.829V183.865Z" fill="#FFFDFA"/>
<path d="M268.748 184.347V185.278L284.723 194.494V193.531L268.748 184.347Z" fill="#FFFDFA"/>
<path d="M282.634 187.141V188.072L284.723 189.292V188.361L282.634 187.141Z" fill="#FFFDFA"/>
<path d="M271.19 178.824L260.133 172.466V173.397L271.19 179.755V178.824Z" fill="#FFFDFA"/>
<path d="M266.658 162.383L260.133 158.626V159.558L266.658 163.315V162.383Z" fill="#FFFDFA"/>
<path d="M277.362 168.517L267.462 162.833V163.796L277.362 169.48V168.517Z" fill="#FFFDFA"/>
<path d="M271.577 166.943L264.634 162.929V163.893L271.577 167.874V166.943Z" fill="#FFFDFA"/>
<path d="M278.873 171.15L272.412 167.425V168.356L278.873 172.081V171.15Z" fill="#FFFDFA"/>
<path d="M279.708 171.599V172.562L284.723 175.452V174.521L279.708 171.599Z" fill="#FFFDFA"/>
<path d="M261.419 162.801V163.764L266.658 166.783V165.819L261.419 162.801Z" fill="#FFFDFA"/>
<path d="M282.665 175.067L267.462 166.301V167.232L282.665 175.998V175.067Z" fill="#FFFDFA"/>
<path d="M273.955 175.227L264.055 169.512V170.443L273.955 176.191V175.227Z" fill="#FFFDFA"/>
<path d="M282.666 180.237L274.791 175.709V176.64L282.666 181.2V180.237Z" fill="#FFFDFA"/>
<path d="M281.798 184.925L271.994 179.273V180.237L281.798 185.888V184.925Z" fill="#FFFDFA"/>
<path d="M276.462 183.608V184.54L281.798 187.622V186.659L276.462 183.608Z" fill="#FFFDFA"/>
<path d="M262.062 175.292L260.133 174.2V175.131L262.062 176.223V175.292Z" fill="#FFFDFA"/>
<path d="M265.662 177.379V178.31L275.659 184.058V183.127L265.662 177.379Z" fill="#FFFDFA"/>
<path d="M264.859 176.897L262.866 175.773V176.705L264.859 177.829V176.897Z" fill="#FFFDFA"/>
<path d="M273.794 183.801L262.866 177.508V178.439L273.794 184.732V183.801Z" fill="#FFFDFA"/>
<path d="M254.669 184.732V185.696L258.655 187.976V187.044L254.669 184.732Z" fill="#FFFDFA"/>
<path d="M254.669 186.467V187.398L258.655 189.71V188.746L254.669 186.467Z" fill="#FFFDFA"/>
<path d="M254.669 188.2V189.131L258.655 191.443V190.48L254.669 188.2Z" fill="#FFFDFA"/>
<path d="M284.722 208.205V207.242L260.133 193.081V194.044L284.722 208.205Z" fill="#FFFDFA"/>
<path d="M254.669 189.934V190.866L258.655 193.177V192.214L254.669 189.934Z" fill="#FFFDFA"/>
<path d="M254.669 191.668V192.6L258.655 194.88V193.948L254.669 191.668Z" fill="#FFFDFA"/>
<path d="M284.722 209.907V208.976L260.133 194.815V195.746L284.722 209.907Z" fill="#FFFDFA"/>
<path d="M254.669 196.838V197.801L258.655 200.081V199.15L254.669 196.838Z" fill="#FFFDFA"/>
<path d="M254.669 198.572V199.535L258.655 201.815V200.884L254.669 198.572Z" fill="#FFFDFA"/>
<path d="M282.634 216.425V217.356L284.723 218.577V217.613L282.634 216.425Z" fill="#FFFDFA"/>
<path d="M271.19 208.109L260.133 201.719V202.682L271.19 209.04V208.109Z" fill="#FFFDFA"/>
<path d="M266.658 191.636L260.133 187.879V188.842L266.658 192.599V191.636Z" fill="#FFFDFA"/>
<path d="M277.362 197.802L267.462 192.118V193.081L277.362 198.765V197.802Z" fill="#FFFDFA"/>
<path d="M271.577 196.228L264.634 192.214V193.177L271.577 197.159V196.228Z" fill="#FFFDFA"/>
<path d="M278.873 200.434L272.412 196.677V197.641L278.873 201.366V200.434Z" fill="#FFFDFA"/>
<path d="M279.708 200.884V201.847L284.723 204.737V203.774L279.708 200.884Z" fill="#FFFDFA"/>
<path d="M261.419 192.086V193.049L266.658 196.067V195.104L261.419 192.086Z" fill="#FFFDFA"/>
<path d="M282.665 204.32L267.462 195.586V196.517L282.665 205.283V204.32Z" fill="#FFFDFA"/>
<path d="M273.955 204.513L264.055 198.797V199.728L273.955 205.444V204.513Z" fill="#FFFDFA"/>
<path d="M282.666 209.521L274.791 204.994V205.925L282.666 210.485V209.521Z" fill="#FFFDFA"/>
<path d="M281.798 214.21L271.994 208.558V209.522L281.798 215.173V214.21Z" fill="#FFFDFA"/>
<path d="M276.462 212.861V213.824L281.798 216.875V215.944L276.462 212.861Z" fill="#FFFDFA"/>
<path d="M262.062 204.577L260.133 203.453V204.416L262.062 205.508V204.577Z" fill="#FFFDFA"/>
<path d="M265.662 206.632V207.595L275.659 213.343V212.412L265.662 206.632Z" fill="#FFFDFA"/>
<path d="M264.859 206.182L262.866 205.026V205.989L264.859 207.113V206.182Z" fill="#FFFDFA"/>
<path d="M273.794 213.054L262.866 206.76V207.724L273.794 214.017V213.054Z" fill="#FFFDFA"/>
<path d="M130.053 25.0784L125.295 22.3169C125.24 22.2807 125.176 22.2607 125.11 22.2591C125.044 22.2575 124.979 22.2744 124.922 22.3078C124.866 22.3412 124.819 22.3898 124.789 22.4482C124.758 22.5065 124.744 22.5722 124.749 22.6379V28.3215C124.747 28.462 124.786 28.6 124.86 28.7195C124.934 28.8389 125.04 28.9348 125.167 28.9958L129.924 31.7573C129.978 31.7851 130.039 31.7983 130.1 31.7956C130.161 31.793 130.22 31.7746 130.272 31.7423C130.324 31.7099 130.366 31.6648 130.396 31.6111C130.425 31.5575 130.439 31.4973 130.438 31.4363V25.7527C130.447 25.6149 130.415 25.4776 130.346 25.3578C130.278 25.238 130.176 25.1408 130.053 25.0784Z" fill="#50E85E"/>
<path d="M130.052 33.5876L125.295 30.8582C125.242 30.8238 125.181 30.8042 125.118 30.8014C125.055 30.7985 124.992 30.8126 124.937 30.8421C124.881 30.8715 124.834 30.9154 124.801 30.9691C124.768 31.0227 124.75 31.0843 124.749 31.1473V36.8308C124.747 36.9713 124.785 37.1093 124.859 37.2287C124.933 37.3482 125.04 37.4441 125.166 37.5051L129.924 40.2667C129.978 40.2944 130.039 40.3076 130.1 40.3049C130.161 40.3023 130.22 40.2839 130.272 40.2516C130.324 40.2192 130.366 40.1741 130.395 40.1204C130.424 40.0668 130.439 40.0065 130.438 39.9455V34.2941C130.442 34.1528 130.408 34.0131 130.34 33.8891C130.272 33.765 130.173 33.6611 130.052 33.5876Z" fill="#50E85E"/>
<path d="M130.052 42.0969L125.295 39.3675C125.242 39.3332 125.181 39.3135 125.118 39.3107C125.055 39.3078 124.992 39.3219 124.937 39.3514C124.881 39.3809 124.834 39.4247 124.801 39.4783C124.768 39.532 124.75 39.5935 124.749 39.6565V45.3722C124.757 45.5104 124.799 45.6444 124.872 45.7621C124.945 45.8798 125.046 45.9776 125.166 46.0466L129.924 48.7759C129.973 48.8139 130.033 48.8364 130.096 48.8407C130.159 48.845 130.221 48.831 130.276 48.8002C130.33 48.7695 130.375 48.7235 130.404 48.6678C130.433 48.6121 130.444 48.5493 130.438 48.4869V42.8034C130.441 42.6621 130.408 42.5224 130.34 42.3984C130.272 42.2744 130.173 42.1703 130.052 42.0969Z" fill="#50E85E"/>
<path d="M130.053 50.6386L125.295 47.8771C125.24 47.841 125.176 47.821 125.11 47.8194C125.044 47.8178 124.979 47.8347 124.922 47.8681C124.866 47.9015 124.819 47.9501 124.789 48.0085C124.758 48.0668 124.744 48.1325 124.749 48.1982V53.8818C124.747 54.0222 124.786 54.1603 124.86 54.2797C124.934 54.3992 125.04 54.4951 125.167 54.5561L129.924 57.3176C129.978 57.3454 130.039 57.3586 130.1 57.3559C130.161 57.3533 130.22 57.3349 130.272 57.3026C130.324 57.2703 130.366 57.2251 130.396 57.1714C130.425 57.1178 130.439 57.0575 130.438 56.9965V51.313C130.447 51.1752 130.415 51.0379 130.346 50.9181C130.278 50.7983 130.176 50.7011 130.053 50.6386Z" fill="#50E85E"/>
<path d="M130.052 59.148L125.295 56.4186C125.242 56.3842 125.181 56.3645 125.118 56.3617C125.055 56.3588 124.992 56.3729 124.937 56.4024C124.881 56.4319 124.834 56.4757 124.801 56.5294C124.768 56.5831 124.75 56.6446 124.749 56.7076V62.3911C124.747 62.5316 124.785 62.6697 124.859 62.7891C124.933 62.9085 125.04 63.0044 125.166 63.0654L129.924 65.827C129.978 65.8547 130.039 65.8679 130.1 65.8653C130.161 65.8626 130.22 65.8442 130.272 65.8119C130.324 65.7796 130.366 65.7344 130.395 65.6807C130.424 65.6271 130.439 65.5669 130.438 65.5059V59.726C130.423 59.6062 130.381 59.4915 130.314 59.3911C130.247 59.2907 130.157 59.2074 130.052 59.148Z" fill="#50E85E"/>
<path d="M130.052 67.657L125.295 64.9276C125.242 64.8932 125.181 64.8736 125.118 64.8707C125.055 64.8679 124.992 64.8819 124.937 64.9114C124.881 64.9409 124.834 64.9847 124.801 65.0384C124.768 65.092 124.75 65.1536 124.749 65.2166V70.9323C124.757 71.0705 124.799 71.2044 124.872 71.3221C124.945 71.4399 125.046 71.5376 125.166 71.6066L129.924 74.336C129.976 74.3627 130.033 74.3761 130.092 74.375C130.15 74.3739 130.207 74.3583 130.258 74.3297C130.309 74.301 130.353 74.2602 130.384 74.2109C130.415 74.1616 130.434 74.1053 130.438 74.047V68.3634C130.441 68.2222 130.408 68.0824 130.34 67.9584C130.272 67.8344 130.173 67.7304 130.052 67.657Z" fill="#50E85E"/>
<path d="M130.053 76.1987L125.295 73.4372C125.24 73.4011 125.176 73.3811 125.11 73.3795C125.044 73.3779 124.979 73.3948 124.922 73.4282C124.866 73.4616 124.819 73.5101 124.789 73.5685C124.758 73.6268 124.744 73.6925 124.749 73.7582V79.4418C124.747 79.5823 124.786 79.7203 124.86 79.8398C124.934 79.9592 125.04 80.0551 125.167 80.1162L129.924 82.8777C129.978 82.9054 130.039 82.9186 130.1 82.916C130.161 82.9133 130.22 82.8949 130.272 82.8626C130.324 82.8303 130.366 82.7851 130.396 82.7314C130.425 82.6778 130.439 82.6176 130.438 82.5566V76.873C130.447 76.7352 130.415 76.5979 130.346 76.4781C130.278 76.3583 130.176 76.2611 130.053 76.1987Z" fill="#50E85E"/>
<path d="M130.052 84.7079L125.295 81.9464C125.238 81.9203 125.176 81.9083 125.114 81.9114C125.052 81.9144 124.991 81.9325 124.938 81.9641C124.884 81.9956 124.839 82.0397 124.806 82.0926C124.773 82.1454 124.753 82.2054 124.749 82.2675V87.9511C124.747 88.0915 124.785 88.2296 124.859 88.349C124.933 88.4684 125.04 88.5643 125.166 88.6254L129.924 91.3869C129.978 91.4147 130.039 91.4279 130.1 91.4252C130.161 91.4226 130.22 91.4042 130.272 91.3719C130.324 91.3395 130.366 91.2943 130.395 91.2407C130.424 91.1871 130.439 91.1268 130.438 91.0658V85.4143C130.445 85.2725 130.413 85.1315 130.345 85.0068C130.277 84.8822 130.175 84.7787 130.052 84.7079Z" fill="#50E85E"/>
<path d="M130.052 93.2173L125.295 90.4879C125.242 90.4535 125.181 90.4339 125.118 90.431C125.055 90.4282 124.992 90.4423 124.937 90.4717C124.881 90.5012 124.834 90.5451 124.801 90.5987C124.768 90.6524 124.75 90.7139 124.749 90.7769V96.4926C124.753 96.6276 124.794 96.7588 124.868 96.8721C124.941 96.9853 125.045 97.0761 125.166 97.1348L129.924 99.8963C129.976 99.923 130.033 99.9364 130.092 99.9353C130.15 99.9342 130.207 99.9187 130.258 99.89C130.309 99.8614 130.353 99.8205 130.384 99.7712C130.415 99.7219 130.434 99.6656 130.438 99.6073V93.9237C130.441 93.7825 130.408 93.6428 130.34 93.5188C130.272 93.3947 130.173 93.2907 130.052 93.2173Z" fill="#50E85E"/>
<path d="M130.053 101.758L125.295 98.9967C125.24 98.9606 125.176 98.9407 125.11 98.9391C125.044 98.9375 124.979 98.9543 124.922 98.9877C124.866 99.0211 124.819 99.0698 124.789 99.1281C124.758 99.1864 124.744 99.2522 124.749 99.3179V105.001C124.751 105.141 124.791 105.278 124.864 105.396C124.938 105.515 125.043 105.612 125.167 105.676L129.924 108.405C129.974 108.443 130.034 108.466 130.096 108.47C130.159 108.474 130.221 108.46 130.276 108.429C130.331 108.399 130.375 108.353 130.404 108.297C130.433 108.241 130.445 108.179 130.438 108.116V102.433C130.447 102.295 130.415 102.158 130.346 102.038C130.278 101.918 130.176 101.821 130.053 101.758Z" fill="#50E85E"/>
<path d="M130.053 110.268L125.295 107.507C125.24 107.47 125.176 107.45 125.11 107.449C125.044 107.447 124.979 107.464 124.922 107.498C124.866 107.531 124.819 107.58 124.789 107.638C124.758 107.696 124.744 107.762 124.749 107.828V113.511C124.747 113.652 124.786 113.79 124.86 113.909C124.934 114.029 125.04 114.124 125.167 114.186L129.924 116.947C129.978 116.975 130.039 116.988 130.1 116.985C130.161 116.983 130.22 116.964 130.272 116.932C130.324 116.9 130.366 116.854 130.396 116.801C130.425 116.747 130.439 116.687 130.438 116.626V111.103C130.472 110.941 130.453 110.772 130.384 110.622C130.314 110.471 130.198 110.347 130.053 110.268Z" fill="#50E85E"/>
<path d="M130.052 118.777L125.295 116.048C125.242 116.014 125.181 115.994 125.118 115.991C125.055 115.988 124.992 116.002 124.937 116.032C124.881 116.061 124.834 116.105 124.801 116.159C124.768 116.212 124.75 116.274 124.749 116.337V122.053C124.753 122.188 124.794 122.319 124.868 122.432C124.941 122.545 125.045 122.636 125.166 122.695L129.924 125.456C129.978 125.484 130.039 125.497 130.1 125.495C130.161 125.492 130.22 125.474 130.272 125.441C130.323 125.409 130.366 125.364 130.395 125.31C130.424 125.257 130.439 125.196 130.438 125.135V119.484C130.441 119.343 130.408 119.203 130.34 119.079C130.272 118.955 130.173 118.851 130.052 118.777Z" fill="#50E85E"/>
<path d="M225.323 281.289C222.373 280.274 219.22 279.989 216.135 280.458C213.051 280.928 210.126 282.139 207.613 283.986C197.97 290.408 191.541 299.174 195.463 302.45C199.384 305.725 206.938 309.225 211.856 307.459C216.773 305.693 241.073 291.436 225.323 281.289Z" fill="#0F4463"/>
<path d="M427.532 243.816L351.804 286.683L303.526 258.779L379.254 215.944L427.532 243.816Z" fill="#1DBF73"/>
<path d="M366.623 285.656V287.325L442.351 244.008V242.788L366.623 285.656Z" fill="#F0CEC9"/>
<path d="M442.35 242.788L366.622 285.656L318.376 257.752L394.072 214.916L442.35 242.788Z" fill="#FFFBF0"/>
<path d="M366.622 285.656V287.326L318.376 259.422V257.752L366.622 285.656Z" fill="#F5DDD8"/>
<path d="M393.558 219.476L422.711 236.27L421.458 237.008L392.272 220.215L393.558 219.476Z" fill="#DFBAB8"/>
<path d="M390.536 221.21L419.69 238.004L418.404 238.71L389.25 221.916L390.536 221.21Z" fill="#DFBAB8"/>
<path d="M383.497 225.192L423.643 248.343L422.358 249.05L382.211 225.898L383.497 225.192Z" fill="#DFBAB8"/>
<path d="M380.701 226.765L420.847 249.917L419.593 250.623L379.415 227.472L380.701 226.765Z" fill="#DFBAB8"/>
<path d="M377.936 228.338L418.083 251.49L416.797 252.197L376.651 229.045L377.936 228.338Z" fill="#DFBAB8"/>
<path d="M375.14 229.912L415.286 253.064L414.033 253.77L373.886 230.619L375.14 229.912Z" fill="#DFBAB8"/>
<path d="M372.376 231.485L412.522 254.637L411.236 255.376L371.09 232.224L372.376 231.485Z" fill="#DFBAB8"/>
<path d="M369.579 233.059L409.758 256.211L408.472 256.949L368.326 233.797L369.579 233.059Z" fill="#DFBAB8"/>
<path d="M366.815 234.632L406.962 257.784L405.676 258.522L365.53 235.37L366.815 234.632Z" fill="#DFBAB8"/>
<path d="M364.019 236.206L404.197 259.357L402.911 260.096L362.765 236.944L364.019 236.206Z" fill="#DFBAB8"/>
<path d="M361.255 237.779L401.401 260.931L400.115 261.669L359.969 238.518L361.255 237.779Z" fill="#DFBAB8"/>
<path d="M358.458 239.352L398.636 262.504L397.351 263.243L357.204 240.091L358.458 239.352Z" fill="#DFBAB8"/>
<path d="M355.694 240.926L395.84 264.11L394.554 264.816L354.408 241.665L355.694 240.926Z" fill="#DFBAB8"/>
<path d="M352.93 242.531L393.076 265.651L391.79 266.39L351.644 243.238L352.93 242.531Z" fill="#DFBAB8"/>
<path d="M350.133 244.105L390.28 267.256L388.994 267.963L348.848 244.811L350.133 244.105Z" fill="#DFBAB8"/>
<path d="M347.369 245.678L387.515 268.83L386.229 269.536L346.083 246.385L347.369 245.678Z" fill="#DFBAB8"/>
<path d="M344.573 247.251L384.719 270.403L383.465 271.11L343.287 247.958L344.573 247.251Z" fill="#DFBAB8"/>
<path d="M311.851 268.766H304.78V276.408H311.851C313.121 276.408 314.339 276.912 315.238 277.809C316.136 278.707 316.64 279.923 316.64 281.192V293.587C316.632 294.85 316.123 296.059 315.226 296.95C314.329 297.84 313.116 298.339 311.851 298.339H301.469V305.982H311.851C315.145 305.982 318.304 304.677 320.636 302.353C322.967 300.03 324.282 296.877 324.29 293.587V281.289C324.299 279.65 323.984 278.026 323.363 276.509C322.742 274.992 321.827 273.612 320.672 272.449C319.516 271.286 318.142 270.361 316.629 269.729C315.115 269.097 313.492 268.77 311.851 268.766Z" fill="#A7BCCE"/>
<path d="M309.183 264.56V307.524C309.183 314.203 299.251 319.597 287.005 319.597C274.759 319.597 264.794 314.203 264.794 307.524V264.56H309.183Z" fill="#BBCEE1"/>
<path d="M264.794 264.559C264.794 271.206 274.727 276.632 287.005 276.632C299.284 276.632 309.183 271.206 309.183 264.559C309.183 257.912 299.251 252.389 287.005 252.389C274.759 252.389 264.794 257.912 264.794 264.559Z" fill="#FFFDFA"/>
<path d="M269.23 264.399C269.23 269.633 277.169 273.839 287.005 273.839C296.841 273.839 304.78 269.633 304.78 264.399C304.78 259.165 296.808 254.99 287.005 254.99C277.201 254.99 269.23 259.197 269.23 264.399Z" fill="#A7BCCE"/>
<path d="M287.005 261.156C279.227 261.156 272.637 263.821 270.195 267.578C272.637 271.27 279.227 274 287.005 274C294.784 274 301.373 271.335 303.784 267.578C301.373 263.821 294.784 261.156 287.005 261.156Z" fill="#9D4D36"/>
<path d="M295.394 275.734V318.698C299.219 317.971 302.806 316.317 305.84 313.881V270.917C302.806 273.353 299.219 275.008 295.394 275.734Z" fill="#A7BCCE"/>
</g>
<defs>
<filter id="filter0_dddd_234_1135" x="-377.988" y="31.7891" width="865.957" height="696.739" filterUnits="userSpaceOnUse" color-interpolation-filters="sRGB">
<feFlood flood-opacity="0" result="BackgroundImageFix"/>
<feColorMatrix in="SourceAlpha" type="matrix" values="0 0 0 0 0 0 0 0 0 0 0 0 0 0 0 0 0 0 127 0" result="hardAlpha"/>
<feOffset dx="-12" dy="14"/>
<feGaussianBlur stdDeviation="20.5"/>
<feColorMatrix type="matrix" values="0 0 0 0 0 0 0 0 0 0 0 0 0 0 0 0 0 0 0.15 0"/>
<feBlend mode="normal" in2="BackgroundImageFix" result="effect1_dropShadow_234_1135"/>
<feColorMatrix in="SourceAlpha" type="matrix" values="0 0 0 0 0 0 0 0 0 0 0 0 0 0 0 0 0 0 127 0" result="hardAlpha"/>
<feOffset dx="-49" dy="57"/>
<feGaussianBlur stdDeviation="37.5"/>
<feColorMatrix type="matrix" values="0 0 0 0 0 0 0 0 0 0 0 0 0 0 0 0 0 0 0.13 0"/>
<feBlend mode="normal" in2="effect1_dropShadow_234_1135" result="effect2_dropShadow_234_1135"/>
<feColorMatrix in="SourceAlpha" type="matrix" values="0 0 0 0 0 0 0 0 0 0 0 0 0 0 0 0 0 0 127 0" result="hardAlpha"/>
<feOffset dx="-110" dy="129"/>
<feGaussianBlur stdDeviation="51"/>
<feColorMatrix type="matrix" values="0 0 0 0 0 0 0 0 0 0 0 0 0 0 0 0 0 0 0.08 0"/>
<feBlend mode="normal" in2="effect2_dropShadow_234_1135" result="effect3_dropShadow_234_1135"/>
<feColorMatrix in="SourceAlpha" type="matrix" values="0 0 0 0 0 0 0 0 0 0 0 0 0 0 0 0 0 0 127 0" result="hardAlpha"/>
<feOffset dx="-195" dy="230"/>
<feGaussianBlur stdDeviation="60"/>
<feColorMatrix type="matrix" values="0 0 0 0 0 0 0 0 0 0 0 0 0 0 0 0 0 0 0.02 0"/>
<feBlend mode="normal" in2="effect3_dropShadow_234_1135" result="effect4_dropShadow_234_1135"/>
<feBlend mode="normal" in="SourceGraphic" in2="effect4_dropShadow_234_1135" result="shape"/>
</filter>
<linearGradient id="paint0_linear_234_1135" x1="182.605" y1="194.687" x2="238.014" y2="12.2676" gradientUnits="userSpaceOnUse">
<stop stop-color="#1C75BC"/>
<stop offset="0.28" stop-color="#2077BC"/>
<stop offset="0.54" stop-color="#2B7EBC"/>
<stop offset="0.8" stop-color="#3E88BC"/>
<stop offset="1" stop-color="#5394BC"/>
</linearGradient>
</defs>
</svg>
