<svg width="40" height="40" viewBox="0 0 40 40" fill="none" xmlns="http://www.w3.org/2000/svg">
<path d="M8.82172 8.82156C9.13426 8.50911 9.55811 8.33358 10.0001 8.33358C10.442 8.33358 10.8658 8.50911 11.1784 8.82156L20.0001 17.6432L28.8217 8.82156C28.9755 8.66237 29.1594 8.5354 29.3627 8.44806C29.566 8.36071 29.7848 8.31473 30.006 8.31281C30.2273 8.31088 30.4468 8.35305 30.6516 8.43685C30.8565 8.52066 31.0426 8.64441 31.199 8.8009C31.3555 8.95739 31.4793 9.14347 31.5631 9.3483C31.6469 9.55313 31.6891 9.77259 31.6871 9.99389C31.6852 10.2152 31.6392 10.4339 31.5519 10.6372C31.4645 10.8406 31.3376 11.0245 31.1784 11.1782L22.3567 19.9999L31.1784 28.8216C31.482 29.1359 31.65 29.5569 31.6462 29.9939C31.6424 30.4309 31.4671 30.8489 31.1581 31.1579C30.8491 31.4669 30.431 31.6422 29.9941 31.646C29.5571 31.6498 29.1361 31.4818 28.8217 31.1782L20.0001 22.3566L11.1784 31.1782C10.864 31.4818 10.443 31.6498 10.006 31.646C9.56905 31.6422 9.15103 31.4669 8.84202 31.1579C8.53301 30.8489 8.35772 30.4309 8.35393 29.9939C8.35013 29.5569 8.51812 29.1359 8.82172 28.8216L17.6434 19.9999L8.82172 11.1782C8.50927 10.8657 8.33374 10.4418 8.33374 9.99989C8.33374 9.55795 8.50927 9.1341 8.82172 8.82156Z" fill="black"/>
</svg>
