<svg width="364" height="692" viewBox="0 0 364 692" fill="none" xmlns="http://www.w3.org/2000/svg">
<path opacity="0.2" d="M113.891 15.8376L86.8018 0.295941C86.5029 0.109083 86.1588 0.0068986 85.8063 0.000337222C85.4538 -0.00622415 85.1061 0.0830728 84.8005 0.258679C84.4949 0.434285 84.2428 0.689609 84.0712 0.997302C83.8996 1.30499 83.8151 1.6535 83.8265 2.00553V34.3904C83.8115 35.1775 84.0096 35.9539 84.3998 36.6378C84.79 37.3217 85.3578 37.8876 86.0433 38.2758L113.132 53.934C113.436 54.141 113.792 54.2577 114.16 54.2707C114.527 54.2836 114.89 54.1923 115.208 54.0072C115.525 53.8222 115.784 53.551 115.954 53.2252C116.123 52.8993 116.197 52.5321 116.166 52.1662V19.723C116.155 18.9342 115.94 18.1616 115.541 17.4807C115.142 16.7997 114.574 16.2336 113.891 15.8376Z" fill="#FFFDFA"/>
<path d="M101.873 43.1518L66.3634 22.6951C65.8183 22.3784 65.1943 22.223 64.5643 22.2471C63.9342 22.2711 63.3239 22.4737 62.8047 22.8311L55.0261 27.3187L58.6431 32.2338L60.0044 33.7879V68.9315C60.0003 69.9585 60.2679 70.9683 60.7802 71.8587C61.2924 72.7491 62.0311 73.4885 62.9214 74.0019L89.5047 89.3688L89.7769 90.8452L95.2025 98.4412L103.545 93.5261C103.938 93.2907 104.262 92.9574 104.487 92.559C104.712 92.1606 104.83 91.7106 104.828 91.2532V48.5137C104.852 47.439 104.592 46.3771 104.072 45.4355C103.553 44.4939 102.795 43.7061 101.873 43.1518Z" fill="#8DDEB8"/>
<g filter="url(#filter0_dddd_234_1735)">
<path d="M93.5689 48.028L57.6708 27.3187C57.2729 27.1004 56.8252 26.9888 56.3713 26.9949C55.9174 27.001 55.4729 27.1246 55.0811 27.3536C54.6892 27.5825 54.3635 27.9091 54.1357 28.3014C53.908 28.6936 53.7859 29.1382 53.7815 29.5917V72.5643C53.7794 73.5932 54.0499 74.6043 54.5657 75.4949C55.0815 76.3855 55.824 77.1238 56.7179 77.6348L92.655 98.4023C93.0651 98.6366 93.5295 98.7594 94.002 98.7585C94.4744 98.7576 94.9384 98.633 95.3476 98.3972C95.7568 98.1613 96.097 97.8224 96.3343 97.4143C96.5715 97.0061 96.6976 96.543 96.6999 96.0711V53.3315C96.6957 52.2496 96.4035 51.1882 95.8533 50.2562C95.3032 49.3242 94.5147 48.5552 93.5689 48.028Z" fill="#56CF96"/>
<path d="M96.5637 96.0711V53.3316C96.5465 52.6269 96.4084 51.9304 96.1553 51.2724L104.478 46.4739C104.72 47.0939 104.852 47.7513 104.867 48.4166V91.1561C104.869 91.6135 104.751 92.0635 104.526 92.4619C104.301 92.8603 103.976 93.1936 103.584 93.4291L95.3191 98.2858C95.6961 98.0508 96.0077 97.7248 96.2252 97.3377C96.4428 96.9506 96.5592 96.515 96.5637 96.0711Z" fill="#1DBF73"/>
</g>
<path d="M62.2407 47.8922L57.8652 45.3667V61.0832L60.7627 62.7539V57.1589L62.0073 57.8777C62.5499 58.3043 63.1784 58.6086 63.8497 58.7695C64.5211 58.9305 65.2194 58.9444 65.8966 58.8102C66.8106 58.4411 67.2773 57.4115 67.2773 55.7213C67.3139 54.1544 66.8657 52.6144 65.9938 51.3114C65.0323 49.8901 63.7458 48.718 62.2407 47.8922ZM63.6992 55.527C63.0046 55.6077 62.3062 55.4123 61.7545 54.9831L60.8016 54.4391V49.7766L62.124 50.5343C62.8153 50.9176 63.4078 51.4563 63.8547 52.1079C64.2359 52.7192 64.4318 53.4277 64.4187 54.1477C64.3798 54.9248 64.1464 55.3911 63.6992 55.527Z" fill="#FFFDFA"/>
<path d="M77.4285 62.8121L72.0224 59.6843L72.0418 53.526L69.1248 51.8552L69.0859 67.5717L71.9835 69.2424L72.0029 62.4624L77.4285 65.5901L77.409 72.3702L80.3066 74.0409L80.3454 58.3244L77.4479 56.6537L77.4285 62.8121Z" fill="#FFFDFA"/>
<path d="M91.1771 65.8233C90.2101 64.3997 88.9167 63.2275 87.4045 62.4042L83.0291 59.8787V75.5951L85.9266 77.2659V71.6903L87.1712 72.4091C87.7165 72.8301 88.3458 73.1294 89.0167 73.2869C89.6876 73.4444 90.3845 73.4564 91.0604 73.3222C91.9744 72.9531 92.4411 71.9429 92.4411 70.2333C92.481 68.6688 92.0398 67.1297 91.1771 65.8233ZM88.7852 70.0584C88.0884 70.1294 87.3912 69.9274 86.8405 69.495L85.8877 68.9511V64.2886L87.21 65.0463C87.9052 65.4241 88.4989 65.9639 88.9407 66.6199C89.3245 67.2372 89.5204 67.9526 89.5047 68.6791C89.5436 69.4368 89.3102 69.903 88.7852 70.0584Z" fill="#FFFDFA"/>
<g opacity="0.4">
<path d="M79.8411 242.981L43.5735 222V223.846L79.8411 244.827V242.981Z" fill="#FFFDFA"/>
<path d="M43.5735 227.459L99.2098 259.611V257.765L43.5735 225.614V227.459Z" fill="#FFFDFA"/>
<path d="M82.272 244.341V246.187L99.2099 255.997V254.152L82.272 244.341Z" fill="#FFFDFA"/>
<path d="M79.8411 250.033L43.5735 229.052V230.898L79.8411 251.879V250.033Z" fill="#FFFDFA"/>
<path d="M43.5735 234.53L99.2098 266.663V264.817L43.5735 232.685V234.53Z" fill="#FFFDFA"/>
<path d="M82.272 253.239L99.2099 263.049V261.204L82.272 251.413V253.239Z" fill="#FFFDFA"/>
<path d="M79.8411 261.689L43.5735 240.708V242.554L79.8411 263.535V261.689Z" fill="#FFFDFA"/>
<path d="M43.5735 246.187L99.2098 278.319V276.473L43.5735 244.341V246.187Z" fill="#FFFDFA"/>
<path d="M82.272 264.895L99.2099 274.706V272.86L82.272 263.069V264.895Z" fill="#FFFDFA"/>
<path d="M79.8411 268.761L43.5735 247.78V249.625L79.8411 270.607V268.761Z" fill="#FFFDFA"/>
<path d="M43.5735 253.239L99.2098 285.39V283.545L43.5735 251.393V253.239Z" fill="#FFFDFA"/>
<path d="M82.272 271.966L99.2099 281.758V279.932L82.272 270.121V271.966Z" fill="#FFFDFA"/>
<path d="M79.8411 280.417L43.5735 259.436V261.282L79.8411 282.263V280.417Z" fill="#FFFDFA"/>
<path d="M43.5735 264.895L99.2098 297.047V295.201L43.5735 263.049V264.895Z" fill="#FFFDFA"/>
<path d="M82.272 283.623L99.2099 293.414V291.568L82.272 281.777V283.623Z" fill="#FFFDFA"/>
<path d="M79.8411 287.469L43.5735 266.488V268.334L79.8411 289.315V287.469Z" fill="#FFFDFA"/>
<path d="M43.5735 271.947L99.2098 304.099V302.253L43.5735 270.101V271.947Z" fill="#FFFDFA"/>
<path d="M82.272 290.675L99.2099 300.485V298.64L82.272 288.829V290.675Z" fill="#FFFDFA"/>
</g>
<path d="M52.1883 256.774L16.6207 236.395C16.0742 236.083 15.451 235.93 14.8219 235.954C14.1928 235.978 13.5831 236.178 13.062 236.531L5.28345 241.038L8.90046 245.934L10.2617 247.488V282.632C10.2542 283.662 10.5202 284.676 11.0326 285.57C11.5451 286.464 12.2855 287.207 13.1787 287.722L39.762 303.069L40.0343 304.545L45.4598 312.141L53.8023 307.246C54.1976 307.013 54.5244 306.681 54.7498 306.282C54.9751 305.883 55.091 305.431 55.0858 304.973V262.233C55.1393 261.147 54.8984 260.067 54.3884 259.106C53.8784 258.145 53.1184 257.34 52.1883 256.774Z" fill="#8DDEB8"/>
<g filter="url(#filter1_dddd_234_1735)">
<path d="M43.8264 261.65L7.8893 240.922C7.48923 240.709 7.04102 240.602 6.58767 240.611C6.13433 240.621 5.69106 240.747 5.30052 240.977C4.90998 241.208 4.58526 241.534 4.35751 241.926C4.12976 242.318 4.00665 242.761 4.00001 243.214V286.187C3.99789 287.216 4.26846 288.227 4.78421 289.117C5.29996 290.008 6.04254 290.746 6.93645 291.257L42.8735 312.005C43.2836 312.24 43.7481 312.363 44.2205 312.362C44.6929 312.361 45.1569 312.236 45.5661 312C45.9753 311.764 46.3155 311.426 46.5528 311.017C46.7901 310.609 46.9161 310.146 46.9184 309.674V266.935C46.9248 265.858 46.6411 264.799 46.0971 263.869C45.5531 262.94 44.7688 262.173 43.8264 261.65Z" fill="#56CF96"/>
<path d="M46.8601 309.674V266.935C46.8429 266.23 46.7048 265.534 46.4517 264.876L54.7747 260.077C55.0144 260.698 55.146 261.355 55.1637 262.02V304.759C55.1689 305.218 55.053 305.669 54.8277 306.068C54.6023 306.467 54.2755 306.8 53.8802 307.032L45.6155 311.889C45.9888 311.65 46.2976 311.323 46.5147 310.937C46.7317 310.551 46.8503 310.117 46.8601 309.674Z" fill="#1DBF73"/>
</g>
<path d="M15.2401 265.342C15.8399 265.686 16.3895 266.111 16.8736 266.605C17.4181 267.148 17.9626 267.712 18.5071 268.334L19.5184 266.022C18.3061 264.587 16.8676 263.36 15.2596 262.389C14.1821 261.679 12.9138 261.313 11.6231 261.34C11.1183 261.386 10.6336 261.56 10.215 261.845C9.79634 262.131 9.45769 262.519 9.23117 262.972C8.6192 264.249 8.332 265.656 8.39499 267.071C8.33735 269.613 8.91195 272.129 10.0674 274.395C11.1694 276.499 12.8579 278.24 14.929 279.407C16.1441 280.174 17.5104 280.671 18.9349 280.864V277.892C17.6325 277.691 16.3754 277.263 15.2207 276.629C12.7898 275.23 11.5647 272.743 11.5842 268.858C11.4345 267.571 11.7746 266.274 12.537 265.225C13.2954 264.642 14.1122 264.662 15.2401 265.342Z" fill="#FFFDFA"/>
<path d="M27.1606 272.238L24.9826 270.976L24.9632 275.444L21.1128 273.21V275.716L24.9632 277.95L24.9437 282.36L27.1217 283.603L27.1412 279.213L30.9916 281.427L31.011 278.921L27.1412 276.687L27.1606 272.238Z" fill="#FFFDFA"/>
<path d="M38.7896 283.409L38.8091 278.96L36.6311 277.697L36.6116 282.146L32.7612 279.931V282.437L36.6116 284.672L36.5922 289.062L38.7702 290.325L38.7896 285.915L42.64 288.149V285.643L38.7896 283.409Z" fill="#FFFDFA"/>
<g opacity="0.4">
<path d="M337.841 75.9812L301.573 55V56.8456L337.841 77.8268V75.9812Z" fill="#FFFDFA"/>
<path d="M301.573 60.4591L357.21 92.6109V90.7653L301.573 58.6135V60.4591Z" fill="#FFFDFA"/>
<path d="M340.271 77.3411V79.1866L357.209 88.9973V87.1517L340.271 77.3411Z" fill="#FFFDFA"/>
<path d="M337.841 83.0332L301.573 62.052V63.8976L337.841 84.8788V83.0332Z" fill="#FFFDFA"/>
<path d="M301.573 67.5304L357.21 99.6627V97.8172L301.573 65.6848V67.5304Z" fill="#FFFDFA"/>
<path d="M340.271 86.2387L357.209 96.0494V94.2038L340.271 84.4126V86.2387Z" fill="#FFFDFA"/>
<path d="M337.841 94.6895L301.573 73.7083V75.5538L337.841 96.535V94.6895Z" fill="#FFFDFA"/>
<path d="M301.573 79.1866L357.21 111.319V109.473L301.573 77.3411V79.1866Z" fill="#FFFDFA"/>
<path d="M340.271 97.895L357.209 107.706V105.86L340.271 96.0688V97.895Z" fill="#FFFDFA"/>
<path d="M337.841 101.761L301.573 80.7798V82.6254L337.841 103.607V101.761Z" fill="#FFFDFA"/>
<path d="M301.573 86.2386L357.21 118.39V116.545L301.573 84.3931V86.2386Z" fill="#FFFDFA"/>
<path d="M340.271 104.966L357.209 114.758V112.932L340.271 103.121V104.966Z" fill="#FFFDFA"/>
<path d="M337.841 113.417L301.573 92.436V94.2816L337.841 115.263V113.417Z" fill="#FFFDFA"/>
<path d="M301.573 97.8949L357.21 130.047V128.201L301.573 96.0493V97.8949Z" fill="#FFFDFA"/>
<path d="M340.271 116.623L357.209 126.414V124.568L340.271 114.777V116.623Z" fill="#FFFDFA"/>
<path d="M337.841 120.469L301.573 99.488V101.334L337.841 122.315V120.469Z" fill="#FFFDFA"/>
<path d="M301.573 104.947L357.21 137.099V135.253L301.573 103.101V104.947Z" fill="#FFFDFA"/>
<path d="M340.271 123.675L357.209 133.485V131.64L340.271 121.829V123.675Z" fill="#FFFDFA"/>
</g>
<path d="M310.188 89.7744L274.62 69.3954C274.074 69.0831 273.451 68.9303 272.822 68.9544C272.193 68.9784 271.583 69.1783 271.062 69.5314L263.283 74.0384L266.9 78.9341L268.261 80.4882V115.632C268.254 116.662 268.52 117.676 269.032 118.57C269.545 119.464 270.285 120.207 271.178 120.722L297.762 136.069L298.034 137.545L303.46 145.141L311.802 140.246C312.197 140.013 312.524 139.681 312.75 139.282C312.975 138.883 313.091 138.431 313.086 137.973V95.2334C313.139 94.1471 312.898 93.0666 312.388 92.1058C311.878 91.145 311.118 90.3395 310.188 89.7744Z" fill="#8DDEB8"/>
<g filter="url(#filter2_dddd_234_1735)">
<path d="M301.826 94.6505L265.889 73.9218C265.489 73.7086 265.041 73.6017 264.588 73.6114C264.134 73.6212 263.691 73.7472 263.301 73.9774C262.91 74.2076 262.585 74.5342 262.358 74.9259C262.13 75.3176 262.007 75.7612 262 76.2142V119.187C261.998 120.216 262.268 121.227 262.784 122.117C263.3 123.008 264.043 123.746 264.936 124.257L300.873 145.005C301.284 145.24 301.748 145.363 302.22 145.362C302.693 145.361 303.157 145.236 303.566 145C303.975 144.764 304.316 144.426 304.553 144.017C304.79 143.609 304.916 143.146 304.918 142.674V99.9346C304.925 98.8578 304.641 97.799 304.097 96.8693C303.553 95.9396 302.769 95.1732 301.826 94.6505Z" fill="#56CF96"/>
<path d="M304.86 142.674V99.9349C304.843 99.2302 304.705 98.5336 304.451 97.8756L312.774 93.0771C313.014 93.6978 313.146 94.3549 313.163 95.0199V137.759C313.169 138.218 313.053 138.669 312.827 139.068C312.602 139.467 312.275 139.8 311.88 140.032L303.615 144.889C303.989 144.65 304.297 144.323 304.514 143.937C304.731 143.551 304.85 143.117 304.86 142.674Z" fill="#1DBF73"/>
</g>
<path d="M273.24 98.3418C273.84 98.6861 274.39 99.111 274.874 99.6045C275.418 100.148 275.963 100.712 276.507 101.334L277.519 99.0217C276.306 97.5873 274.868 96.3603 273.26 95.3889C272.182 94.6785 270.914 94.3126 269.623 94.3398C269.119 94.3857 268.634 94.5597 268.215 94.8453C267.797 95.1309 267.458 95.5186 267.231 95.9717C266.619 97.2485 266.332 98.6565 266.395 100.071C266.338 102.613 266.912 105.129 268.068 107.395C269.17 109.499 270.858 111.24 272.929 112.407C274.144 113.174 275.511 113.671 276.935 113.864V110.892C275.633 110.691 274.376 110.263 273.221 109.629C270.79 108.23 269.565 105.743 269.584 101.858C269.435 100.571 269.775 99.2739 270.537 98.2252C271.296 97.6424 272.112 97.6618 273.24 98.3418Z" fill="#FFFDFA"/>
<path d="M285.161 105.238L282.983 103.976L282.963 108.444L279.113 106.21V108.716L282.963 110.95L282.944 115.36L285.122 116.603L285.141 112.213L288.992 114.427L289.011 111.921L285.141 109.687L285.161 105.238Z" fill="#FFFDFA"/>
<path d="M296.79 116.409L296.809 111.96L294.631 110.697L294.612 115.146L290.761 112.931V115.437L294.612 117.672L294.592 122.062L296.77 123.325L296.79 118.915L300.64 121.149V118.643L296.79 116.409Z" fill="#FFFDFA"/>
<path d="M207.111 394.289L171.582 373.813C171.036 373.501 170.413 373.348 169.784 373.372C169.154 373.396 168.545 373.596 168.024 373.949L160.245 378.456L163.882 383.352L165.223 384.906V420.049C165.218 421.081 165.487 422.097 166.003 422.991C166.519 423.885 167.263 424.626 168.16 425.139L194.743 440.486L195.015 441.963L200.441 449.559L208.783 444.663C209.174 444.427 209.496 444.093 209.717 443.694C209.939 443.296 210.053 442.846 210.047 442.39V399.651C210.081 398.577 209.827 397.513 209.311 396.57C208.794 395.627 208.035 394.84 207.111 394.289Z" fill="#8DDEB8"/>
<g filter="url(#filter3_dddd_234_1735)">
<path d="M198.885 399.165L162.948 378.437C162.548 378.223 162.1 378.117 161.646 378.126C161.193 378.136 160.75 378.262 160.359 378.492C159.969 378.722 159.644 379.049 159.416 379.441C159.188 379.833 159.065 380.276 159.059 380.729V423.76C159.056 424.789 159.327 425.8 159.843 426.691C160.359 427.581 161.101 428.319 161.995 428.83L197.913 449.579C198.323 449.813 198.787 449.936 199.26 449.935C199.732 449.934 200.196 449.809 200.605 449.573C201.014 449.338 201.355 448.999 201.592 448.591C201.829 448.182 201.955 447.719 201.957 447.247V404.333C201.943 403.278 201.652 402.246 201.113 401.339C200.574 400.432 199.805 399.682 198.885 399.165Z" fill="#56CF96"/>
<path d="M201.9 447.189V404.333C201.892 403.627 201.754 402.929 201.491 402.274L209.834 397.475C210.059 398.099 210.184 398.755 210.204 399.418V442.157C210.209 442.613 210.095 443.063 209.873 443.461C209.652 443.86 209.33 444.194 208.939 444.43L200.655 449.287C201.015 449.062 201.316 448.754 201.532 448.389C201.749 448.024 201.875 447.612 201.9 447.189Z" fill="#1DBF73"/>
</g>
<path d="M170.766 396.445C170.294 397.126 170.086 397.955 170.182 398.777V404.061C170.182 405.032 169.871 405.557 169.249 405.615C168.287 405.584 167.354 405.273 166.565 404.721V408.218C167.586 408.773 168.49 409.519 169.23 410.414C169.853 411.211 170.182 412.199 170.163 413.211V418.281C170.134 419.32 170.326 420.353 170.727 421.312C171.2 422.258 171.862 423.098 172.672 423.779C173.74 424.719 174.907 425.54 176.153 426.227V422.847C175.386 422.419 174.722 421.829 174.208 421.118C173.877 420.524 173.703 419.855 173.702 419.175V414.046C173.637 412.966 173.311 411.918 172.753 410.991C172.194 410.064 171.419 409.286 170.494 408.723V408.529C172.613 409.403 173.683 408.801 173.722 406.742V401.885C173.722 401.108 173.897 400.622 174.247 400.467C174.597 400.311 175.238 400.467 176.191 400.972V397.592C175.114 396.918 173.949 396.395 172.73 396.037C172.396 395.921 172.037 395.897 171.691 395.969C171.345 396.041 171.025 396.206 170.766 396.445Z" fill="#FFFDFA"/>
<path d="M190.854 418.107C190.259 417.355 189.937 416.423 189.94 415.464V410.161C189.985 408.629 189.52 407.126 188.618 405.887C187.354 404.377 185.8 403.135 184.048 402.235V405.615C184.816 406.032 185.481 406.616 185.992 407.324C186.328 407.917 186.503 408.587 186.498 409.267V414.124C186.562 415.238 186.89 416.32 187.455 417.283C188.019 418.245 188.804 419.06 189.746 419.661V419.855C189.007 419.455 188.14 419.364 187.334 419.602C186.77 419.874 186.479 420.496 186.479 421.545V426.557C186.479 427.334 186.304 427.82 185.973 427.995C185.642 428.17 184.962 427.995 184.028 427.47V430.851C185.366 431.843 186.972 432.412 188.637 432.483C189.512 432.308 189.959 431.395 189.959 429.724V424.653C189.959 423.604 190.271 423.022 190.874 422.924C191.837 422.948 192.772 423.259 193.557 423.818V420.244C192.532 419.703 191.616 418.979 190.854 418.107Z" fill="#FFFDFA"/>
<path opacity="0.2" d="M185.684 181.985L158.595 166.443C158.295 166.255 157.949 166.153 157.595 166.147C157.24 166.141 156.891 166.232 156.585 166.41C156.279 166.588 156.027 166.846 155.857 167.157C155.687 167.467 155.605 167.818 155.62 168.172V200.557C155.607 201.341 155.804 202.115 156.19 202.798C156.577 203.481 157.138 204.049 157.817 204.442L184.906 220.081C185.209 220.293 185.565 220.414 185.934 220.43C186.302 220.447 186.668 220.358 186.988 220.175C187.308 219.991 187.57 219.721 187.742 219.395C187.914 219.069 187.989 218.7 187.959 218.333V185.928C187.957 185.13 187.745 184.346 187.346 183.655C186.947 182.963 186.374 182.387 185.684 181.985Z" fill="#FFFDFA"/>
<path d="M168.766 196.264L133.179 175.788C132.632 175.475 132.009 175.323 131.38 175.347C130.751 175.371 130.141 175.571 129.62 175.924L121.841 180.411L125.478 185.326L126.82 186.881V222.024C126.814 223.056 127.083 224.071 127.599 224.966C128.115 225.86 128.859 226.601 129.756 227.114L156.339 242.461L156.612 243.938L162.037 251.534L170.38 246.638C170.767 246.399 171.087 246.064 171.308 245.666C171.53 245.268 171.645 244.82 171.644 244.365V201.626C171.684 200.557 171.438 199.497 170.932 198.555C170.426 197.613 169.679 196.822 168.766 196.264Z" fill="#8DDEB8"/>
<g filter="url(#filter4_dddd_234_1735)">
<path d="M160.404 201.14L124.467 180.431C124.067 180.212 123.618 180.1 123.162 180.107C122.707 180.114 122.261 180.239 121.868 180.471C121.476 180.702 121.151 181.031 120.924 181.426C120.698 181.821 120.578 182.268 120.577 182.723V225.676C120.572 226.708 120.841 227.724 121.357 228.618C121.872 229.512 122.617 230.254 123.514 230.766L159.431 251.514C159.841 251.749 160.306 251.871 160.778 251.871C161.251 251.87 161.715 251.745 162.124 251.509C162.533 251.273 162.873 250.934 163.111 250.526C163.348 250.118 163.474 249.655 163.476 249.183V206.444C163.486 205.366 163.206 204.305 162.666 203.372C162.125 202.439 161.344 201.668 160.404 201.14Z" fill="#56CF96"/>
<path d="M163.418 249.164V206.424C163.41 205.718 163.272 205.02 163.01 204.365L171.352 199.566C171.577 200.19 171.702 200.846 171.722 201.509V244.249C171.723 244.704 171.608 245.152 171.386 245.55C171.165 245.948 170.845 246.282 170.458 246.522L162.173 251.378C162.549 251.142 162.86 250.816 163.077 250.429C163.295 250.042 163.412 249.607 163.418 249.164Z" fill="#1DBF73"/>
</g>
<path d="M153.306 209.571C151.429 206.165 148.711 203.296 145.41 201.237C144.275 200.418 142.944 199.914 141.55 199.774C140.157 199.634 138.752 199.864 137.476 200.441C133.587 202.655 133.14 209.319 136.154 215.982L126.431 221.538L129.27 226.453L138.993 220.897C140.676 223.299 142.842 225.323 145.352 226.842C146.482 227.655 147.807 228.157 149.193 228.297C150.579 228.437 151.977 228.21 153.247 227.638C157.642 225.229 157.662 217.109 153.306 209.571ZM150.408 222.801C149.595 223.166 148.7 223.312 147.813 223.223C146.925 223.134 146.077 222.815 145.352 222.296C143.235 220.987 141.493 219.153 140.296 216.973C137.515 212.155 137.515 206.949 140.296 205.317C141.109 204.952 142.004 204.806 142.892 204.895C143.779 204.983 144.627 205.303 145.352 205.822C147.46 207.15 149.199 208.987 150.408 211.164C153.208 216.002 153.208 221.227 150.408 222.801Z" fill="#FFFDFA"/>
<g opacity="0.4">
<path d="M125.886 251.553V253.632L134.637 258.664V256.585L125.886 251.553Z" fill="#FFFDFA"/>
<path d="M125.886 255.342V257.42L134.637 262.471V260.373L125.886 255.342Z" fill="#FFFDFA"/>
<path d="M125.886 259.149V261.228L134.637 266.259V264.181L125.886 259.149Z" fill="#FFFDFA"/>
<path d="M191.888 303.054V300.976L137.924 269.873V271.952L191.888 303.054Z" fill="#FFFDFA"/>
<path d="M125.886 262.938V265.016L134.637 270.067V267.989L125.886 262.938Z" fill="#FFFDFA"/>
<path d="M125.886 266.745V268.824L134.637 273.855V271.777L125.886 266.745Z" fill="#FFFDFA"/>
<path d="M191.888 306.843V304.764L137.924 273.681V275.74L191.888 306.843Z" fill="#FFFDFA"/>
<path d="M125.886 278.129V280.228L134.637 285.259V283.18L125.886 278.129Z" fill="#FFFDFA"/>
<path d="M125.886 281.937V284.016L134.637 289.048V286.969L125.886 281.937Z" fill="#FFFDFA"/>
<path d="M125.886 297.129V299.208L134.637 304.259V302.18L125.886 297.129Z" fill="#FFFDFA"/>
<path d="M125.886 300.937V303.015L134.637 308.047V305.968L125.886 300.937Z" fill="#FFFDFA"/>
<path d="M171.975 327.474L137.924 307.853V309.951L171.975 329.553V327.474Z" fill="#FFFDFA"/>
<path d="M173.764 328.504V330.602L191.888 341.034V338.956L173.764 328.504Z" fill="#FFFDFA"/>
<path d="M155.037 313.914L137.924 304.064V306.143L155.037 315.993V313.914Z" fill="#FFFDFA"/>
<path d="M156.826 314.963V317.022L191.888 337.246V335.167L156.826 314.963Z" fill="#FFFDFA"/>
<path d="M187.279 321.102V323.181L191.888 325.842V323.764L187.279 321.102Z" fill="#FFFDFA"/>
<path d="M162.174 302.841L137.924 288.873V290.951L162.174 304.919V302.841Z" fill="#FFFDFA"/>
<path d="M152.236 266.726L137.924 258.469V260.548L152.236 268.804V266.726Z" fill="#FFFDFA"/>
<path d="M175.708 280.247L154.025 267.755V269.834L175.708 282.326V280.247Z" fill="#FFFDFA"/>
<path d="M163.068 276.769L147.822 267.969V270.048L163.068 278.848V276.769Z" fill="#FFFDFA"/>
<path d="M179.072 285.997L164.857 277.799V279.878L179.072 288.057V285.997Z" fill="#FFFDFA"/>
<path d="M180.861 287.027V289.106L191.887 295.458V293.38L180.861 287.027Z" fill="#FFFDFA"/>
<path d="M140.743 267.697V269.776L152.236 276.4V274.322L140.743 267.697Z" fill="#FFFDFA"/>
<path d="M187.396 294.584L154.025 275.351V277.43L187.396 296.663V294.584Z" fill="#FFFDFA"/>
<path d="M168.299 294.973L146.48 282.403V284.482L168.299 297.051V294.973Z" fill="#FFFDFA"/>
<path d="M187.395 305.969L170.088 296.002V298.081L187.395 308.067V305.969Z" fill="#FFFDFA"/>
<path d="M185.49 316.265L163.962 303.87V305.949L185.49 318.344V316.265Z" fill="#FFFDFA"/>
<path d="M173.764 313.312V315.39L185.49 322.151V320.072L173.764 313.312Z" fill="#FFFDFA"/>
<path d="M142.144 295.089L137.924 292.661V294.74L142.144 297.168V295.089Z" fill="#FFFDFA"/>
<path d="M150.039 299.655V301.733L171.974 314.361V312.282L150.039 299.655Z" fill="#FFFDFA"/>
<path d="M148.25 298.625L143.933 296.138V298.217L148.25 300.704V298.625Z" fill="#FFFDFA"/>
<path d="M167.91 313.739L143.933 299.927V302.005L167.91 315.818V313.739Z" fill="#FFFDFA"/>
</g>
<path opacity="0.2" d="M113.684 456.985L86.5952 441.443C86.295 441.255 85.949 441.153 85.5947 441.147C85.2404 441.141 84.8913 441.232 84.585 441.41C84.2787 441.588 84.027 441.846 83.8569 442.157C83.6868 442.467 83.6048 442.818 83.6199 443.172V475.557C83.6072 476.341 83.8041 477.115 84.1904 477.798C84.5766 478.481 85.1383 479.049 85.8174 479.442L112.906 495.081C113.209 495.293 113.565 495.414 113.934 495.43C114.302 495.447 114.668 495.358 114.988 495.175C115.308 494.991 115.57 494.721 115.742 494.395C115.914 494.069 115.989 493.7 115.959 493.333V460.928C115.957 460.13 115.745 459.346 115.346 458.655C114.947 457.963 114.374 457.387 113.684 456.985Z" fill="#FFFDFA"/>
<path d="M96.7656 471.264L61.1786 450.788C60.6321 450.475 60.0088 450.323 59.3797 450.347C58.7506 450.371 58.1409 450.571 57.6199 450.924L49.8413 455.411L53.4778 460.326L54.8196 461.881V497.024C54.814 498.056 55.083 499.071 55.5989 499.966C56.1149 500.86 56.8593 501.601 57.756 502.114L84.3393 517.461L84.6116 518.938L90.0372 526.534L98.3797 521.638C98.7673 521.399 99.0872 521.064 99.3085 520.666C99.5298 520.268 99.6452 519.82 99.6437 519.365V476.626C99.6836 475.557 99.4381 474.497 98.9323 473.555C98.4265 472.613 97.6786 471.822 96.7656 471.264Z" fill="#8DDEB8"/>
<g filter="url(#filter5_dddd_234_1735)">
<path d="M88.4036 476.14L52.4665 455.431C52.0672 455.212 51.6177 455.1 51.1622 455.107C50.7067 455.114 50.2609 455.239 49.8685 455.471C49.4761 455.702 49.1507 456.031 48.9243 456.426C48.698 456.821 48.5783 457.268 48.5772 457.723V500.676C48.5717 501.708 48.8406 502.724 49.3565 503.618C49.8724 504.512 50.6169 505.254 51.5137 505.766L87.4313 526.514C87.8414 526.749 88.3058 526.871 88.7783 526.871C89.2507 526.87 89.7146 526.745 90.1239 526.509C90.5331 526.273 90.8733 525.934 91.1105 525.526C91.3478 525.118 91.4739 524.655 91.4761 524.183V481.444C91.4859 480.366 91.206 479.305 90.6655 478.372C90.1251 477.439 89.344 476.668 88.4036 476.14Z" fill="#56CF96"/>
<path d="M91.4177 524.164V481.424C91.4101 480.718 91.2717 480.02 91.0093 479.365L99.3518 474.566C99.577 475.19 99.7017 475.846 99.7213 476.509V519.249C99.7228 519.704 99.6074 520.152 99.3861 520.55C99.1648 520.948 98.845 521.282 98.4573 521.522L90.1731 526.378C90.5488 526.142 90.8596 525.816 91.0769 525.429C91.2943 525.042 91.4114 524.607 91.4177 524.164Z" fill="#1DBF73"/>
</g>
<path d="M81.3056 484.571C79.4293 481.165 76.7112 478.296 73.4104 476.237C72.2751 475.418 70.9436 474.914 69.5505 474.774C68.1573 474.634 66.7519 474.864 65.4762 475.441C61.5869 477.655 61.1397 484.319 64.1539 490.982L54.4307 496.538L57.2698 501.453L66.9931 495.897C68.6763 498.299 70.842 500.323 73.352 501.842C74.4822 502.655 75.8069 503.157 77.1928 503.297C78.5788 503.437 79.9771 503.21 81.2473 502.638C85.6422 500.229 85.6616 492.109 81.3056 484.571ZM78.4081 497.801C77.5948 498.166 76.6998 498.312 75.8126 498.223C74.9253 498.134 74.0769 497.815 73.352 497.296C71.2352 495.987 69.4934 494.153 68.2959 491.973C65.5151 487.155 65.5151 481.949 68.2959 480.317C69.1093 479.952 70.0043 479.806 70.8916 479.895C71.7788 479.983 72.6272 480.303 73.352 480.822C75.4603 482.15 77.1993 483.987 78.4081 486.164C81.2084 491.002 81.2084 496.227 78.4081 497.801Z" fill="#FFFDFA"/>
<path opacity="0.2" d="M262.89 558.838L235.802 543.296C235.503 543.109 235.159 543.007 234.806 543C234.454 542.994 234.106 543.083 233.8 543.259C233.495 543.434 233.243 543.69 233.071 543.997C232.899 544.305 232.815 544.654 232.826 545.006V577.39C232.811 578.177 233.009 578.954 233.4 579.638C233.79 580.322 234.358 580.888 235.043 581.276L262.132 596.934C262.436 597.141 262.792 597.258 263.159 597.271C263.527 597.284 263.89 597.192 264.208 597.007C264.525 596.822 264.784 596.551 264.953 596.225C265.123 595.899 265.196 595.532 265.166 595.166V562.723C265.155 561.934 264.939 561.162 264.541 560.481C264.142 559.8 263.573 559.234 262.89 558.838Z" fill="#FFFDFA"/>
<path d="M250.873 586.152L215.364 565.695C214.819 565.378 214.195 565.223 213.564 565.247C212.934 565.271 212.324 565.474 211.805 565.831L204.026 570.319L207.643 575.234L209.005 576.788V611.931C209.001 612.958 209.268 613.968 209.78 614.859C210.293 615.749 211.031 616.488 211.922 617.002L238.505 632.369L238.777 633.845L244.203 641.441L252.545 636.526C252.938 636.291 253.262 635.957 253.487 635.559C253.712 635.161 253.83 634.711 253.829 634.253V591.514C253.853 590.439 253.592 589.377 253.073 588.436C252.554 587.494 251.795 586.706 250.873 586.152Z" fill="#8DDEB8"/>
<g filter="url(#filter6_dddd_234_1735)">
<path d="M242.569 591.028L206.671 570.319C206.273 570.1 205.825 569.989 205.371 569.995C204.917 570.001 204.473 570.125 204.081 570.354C203.689 570.583 203.363 570.909 203.135 571.301C202.908 571.694 202.786 572.138 202.781 572.592V615.564C202.779 616.593 203.05 617.604 203.565 618.495C204.081 619.385 204.824 620.124 205.718 620.635L241.655 641.402C242.065 641.637 242.529 641.759 243.002 641.759C243.474 641.758 243.938 641.633 244.347 641.397C244.757 641.161 245.097 640.822 245.334 640.414C245.571 640.006 245.697 639.543 245.7 639.071V596.332C245.695 595.25 245.403 594.188 244.853 593.256C244.303 592.324 243.514 591.555 242.569 591.028Z" fill="#56CF96"/>
<path d="M245.564 639.071V596.332C245.547 595.627 245.409 594.93 245.156 594.272L253.479 589.474C253.721 590.094 253.852 590.751 253.868 591.417V634.156C253.869 634.614 253.751 635.063 253.526 635.462C253.301 635.86 252.977 636.194 252.584 636.429L244.319 641.286C244.696 641.051 245.008 640.725 245.225 640.338C245.443 639.951 245.559 639.515 245.564 639.071Z" fill="#1DBF73"/>
</g>
<path d="M211.241 590.892L206.865 588.367V604.083L209.763 605.754V600.159L211.007 600.878C211.55 601.304 212.178 601.609 212.85 601.77C213.521 601.931 214.219 601.944 214.897 601.81C215.811 601.441 216.277 600.411 216.277 598.721C216.314 597.154 215.866 595.614 214.994 594.311C214.032 592.89 212.746 591.718 211.241 590.892ZM212.699 598.527C212.005 598.608 211.306 598.412 210.755 597.983L209.802 597.439V592.777L211.124 593.534C211.815 593.918 212.408 594.456 212.855 595.108C213.236 595.719 213.432 596.428 213.419 597.148C213.38 597.925 213.146 598.391 212.699 598.527Z" fill="#FFFDFA"/>
<path d="M226.428 605.812L221.022 602.684L221.042 596.526L218.125 594.855L218.086 610.572L220.983 612.242L221.003 605.462L226.428 608.59L226.409 615.37L229.307 617.041L229.345 601.324L226.448 599.654L226.428 605.812Z" fill="#FFFDFA"/>
<path d="M240.177 608.823C239.21 607.4 237.917 606.227 236.405 605.404L232.029 602.879V618.595L234.927 620.266V614.69L236.171 615.409C236.717 615.83 237.346 616.129 238.017 616.287C238.688 616.444 239.385 616.456 240.061 616.322C240.975 615.953 241.441 614.943 241.441 613.233C241.481 611.669 241.04 610.13 240.177 608.823ZM237.785 613.058C237.089 613.129 236.391 612.927 235.841 612.495L234.888 611.951V607.289L236.21 608.046C236.905 608.424 237.499 608.964 237.941 609.62C238.325 610.237 238.521 610.953 238.505 611.679C238.544 612.437 238.31 612.903 237.785 613.058Z" fill="#FFFDFA"/>
<path d="M332.13 297.908L296.602 277.451C296.06 277.134 295.439 276.978 294.812 277.002C294.185 277.027 293.578 277.23 293.062 277.587L285.284 282.075L288.92 286.99L290.262 288.544V323.688C290.26 324.717 290.53 325.728 291.046 326.618C291.562 327.509 292.305 328.247 293.198 328.758L319.782 344.125L320.054 345.602L325.479 353.198L333.822 348.283C334.21 348.043 334.53 347.709 334.751 347.311C334.972 346.913 335.088 346.465 335.086 346.01V303.27C335.11 302.195 334.849 301.134 334.33 300.192C333.811 299.25 333.052 298.463 332.13 297.908Z" fill="#8DDEB8"/>
<g filter="url(#filter7_dddd_234_1735)">
<path d="M323.826 302.784L287.889 282.075C287.492 281.857 287.044 281.745 286.59 281.751C286.136 281.757 285.691 281.881 285.3 282.11C284.908 282.339 284.582 282.665 284.354 283.058C284.126 283.45 284.005 283.895 284 284.348V327.398C283.995 328.431 284.263 329.446 284.779 330.34C285.295 331.234 286.04 331.976 286.937 332.488L322.854 353.236C323.266 353.469 323.731 353.591 324.204 353.59C324.677 353.588 325.141 353.464 325.552 353.229C325.962 352.993 326.304 352.655 326.543 352.248C326.783 351.84 326.912 351.378 326.918 350.905V307.971C326.898 306.913 326.602 305.878 326.06 304.969C325.518 304.059 324.748 303.307 323.826 302.784Z" fill="#56CF96"/>
<path d="M326.86 350.827V307.971C326.843 307.265 326.699 306.567 326.432 305.912L334.775 301.114C335.008 301.736 335.139 302.392 335.164 303.056V345.796C335.165 346.251 335.05 346.699 334.828 347.097C334.607 347.495 334.287 347.829 333.9 348.069L325.635 352.926C325.992 352.699 326.29 352.39 326.503 352.025C326.716 351.66 326.839 351.249 326.86 350.827Z" fill="#1DBF73"/>
</g>
<path d="M288.512 309.759L299.635 321.842L299.655 318.753L291.973 310.691L299.674 311.041V307.952L288.512 307.913V309.759Z" fill="#FFFDFA"/>
<path d="M300.782 325.125L303.894 326.913L310.078 311.585L306.947 309.797L300.782 325.125Z" fill="#FFFDFA"/>
<path d="M311.147 314.576V317.665L318.829 326.174L311.128 325.378L311.108 328.467L322.29 329.244V327.398L311.147 314.576Z" fill="#FFFDFA"/>
<defs>
<filter id="filter0_dddd_234_1735" x="49.7815" y="24.9946" width="83.0857" height="114.764" filterUnits="userSpaceOnUse" color-interpolation-filters="sRGB">
<feFlood flood-opacity="0" result="BackgroundImageFix"/>
<feColorMatrix in="SourceAlpha" type="matrix" values="0 0 0 0 0 0 0 0 0 0 0 0 0 0 0 0 0 0 127 0" result="hardAlpha"/>
<feOffset dx="1" dy="2"/>
<feGaussianBlur stdDeviation="2"/>
<feColorMatrix type="matrix" values="0 0 0 0 0 0 0 0 0 0 0 0 0 0 0 0 0 0 0.1 0"/>
<feBlend mode="normal" in2="BackgroundImageFix" result="effect1_dropShadow_234_1735"/>
<feColorMatrix in="SourceAlpha" type="matrix" values="0 0 0 0 0 0 0 0 0 0 0 0 0 0 0 0 0 0 127 0" result="hardAlpha"/>
<feOffset dx="4" dy="7"/>
<feGaussianBlur stdDeviation="4"/>
<feColorMatrix type="matrix" values="0 0 0 0 0 0 0 0 0 0 0 0 0 0 0 0 0 0 0.09 0"/>
<feBlend mode="normal" in2="effect1_dropShadow_234_1735" result="effect2_dropShadow_234_1735"/>
<feColorMatrix in="SourceAlpha" type="matrix" values="0 0 0 0 0 0 0 0 0 0 0 0 0 0 0 0 0 0 127 0" result="hardAlpha"/>
<feOffset dx="9" dy="16"/>
<feGaussianBlur stdDeviation="5.5"/>
<feColorMatrix type="matrix" values="0 0 0 0 0 0 0 0 0 0 0 0 0 0 0 0 0 0 0.05 0"/>
<feBlend mode="normal" in2="effect2_dropShadow_234_1735" result="effect3_dropShadow_234_1735"/>
<feColorMatrix in="SourceAlpha" type="matrix" values="0 0 0 0 0 0 0 0 0 0 0 0 0 0 0 0 0 0 127 0" result="hardAlpha"/>
<feOffset dx="15" dy="28"/>
<feGaussianBlur stdDeviation="6.5"/>
<feColorMatrix type="matrix" values="0 0 0 0 0 0 0 0 0 0 0 0 0 0 0 0 0 0 0.01 0"/>
<feBlend mode="normal" in2="effect3_dropShadow_234_1735" result="effect4_dropShadow_234_1735"/>
<feBlend mode="normal" in="SourceGraphic" in2="effect4_dropShadow_234_1735" result="shape"/>
</filter>
<filter id="filter1_dddd_234_1735" x="0" y="238.611" width="83.1638" height="114.751" filterUnits="userSpaceOnUse" color-interpolation-filters="sRGB">
<feFlood flood-opacity="0" result="BackgroundImageFix"/>
<feColorMatrix in="SourceAlpha" type="matrix" values="0 0 0 0 0 0 0 0 0 0 0 0 0 0 0 0 0 0 127 0" result="hardAlpha"/>
<feOffset dx="1" dy="2"/>
<feGaussianBlur stdDeviation="2"/>
<feColorMatrix type="matrix" values="0 0 0 0 0 0 0 0 0 0 0 0 0 0 0 0 0 0 0.1 0"/>
<feBlend mode="normal" in2="BackgroundImageFix" result="effect1_dropShadow_234_1735"/>
<feColorMatrix in="SourceAlpha" type="matrix" values="0 0 0 0 0 0 0 0 0 0 0 0 0 0 0 0 0 0 127 0" result="hardAlpha"/>
<feOffset dx="4" dy="7"/>
<feGaussianBlur stdDeviation="4"/>
<feColorMatrix type="matrix" values="0 0 0 0 0 0 0 0 0 0 0 0 0 0 0 0 0 0 0.09 0"/>
<feBlend mode="normal" in2="effect1_dropShadow_234_1735" result="effect2_dropShadow_234_1735"/>
<feColorMatrix in="SourceAlpha" type="matrix" values="0 0 0 0 0 0 0 0 0 0 0 0 0 0 0 0 0 0 127 0" result="hardAlpha"/>
<feOffset dx="9" dy="16"/>
<feGaussianBlur stdDeviation="5.5"/>
<feColorMatrix type="matrix" values="0 0 0 0 0 0 0 0 0 0 0 0 0 0 0 0 0 0 0.05 0"/>
<feBlend mode="normal" in2="effect2_dropShadow_234_1735" result="effect3_dropShadow_234_1735"/>
<feColorMatrix in="SourceAlpha" type="matrix" values="0 0 0 0 0 0 0 0 0 0 0 0 0 0 0 0 0 0 127 0" result="hardAlpha"/>
<feOffset dx="15" dy="28"/>
<feGaussianBlur stdDeviation="6.5"/>
<feColorMatrix type="matrix" values="0 0 0 0 0 0 0 0 0 0 0 0 0 0 0 0 0 0 0.01 0"/>
<feBlend mode="normal" in2="effect3_dropShadow_234_1735" result="effect4_dropShadow_234_1735"/>
<feBlend mode="normal" in="SourceGraphic" in2="effect4_dropShadow_234_1735" result="shape"/>
</filter>
<filter id="filter2_dddd_234_1735" x="258" y="71.6108" width="83.1636" height="114.751" filterUnits="userSpaceOnUse" color-interpolation-filters="sRGB">
<feFlood flood-opacity="0" result="BackgroundImageFix"/>
<feColorMatrix in="SourceAlpha" type="matrix" values="0 0 0 0 0 0 0 0 0 0 0 0 0 0 0 0 0 0 127 0" result="hardAlpha"/>
<feOffset dx="1" dy="2"/>
<feGaussianBlur stdDeviation="2"/>
<feColorMatrix type="matrix" values="0 0 0 0 0 0 0 0 0 0 0 0 0 0 0 0 0 0 0.1 0"/>
<feBlend mode="normal" in2="BackgroundImageFix" result="effect1_dropShadow_234_1735"/>
<feColorMatrix in="SourceAlpha" type="matrix" values="0 0 0 0 0 0 0 0 0 0 0 0 0 0 0 0 0 0 127 0" result="hardAlpha"/>
<feOffset dx="4" dy="7"/>
<feGaussianBlur stdDeviation="4"/>
<feColorMatrix type="matrix" values="0 0 0 0 0 0 0 0 0 0 0 0 0 0 0 0 0 0 0.09 0"/>
<feBlend mode="normal" in2="effect1_dropShadow_234_1735" result="effect2_dropShadow_234_1735"/>
<feColorMatrix in="SourceAlpha" type="matrix" values="0 0 0 0 0 0 0 0 0 0 0 0 0 0 0 0 0 0 127 0" result="hardAlpha"/>
<feOffset dx="9" dy="16"/>
<feGaussianBlur stdDeviation="5.5"/>
<feColorMatrix type="matrix" values="0 0 0 0 0 0 0 0 0 0 0 0 0 0 0 0 0 0 0.05 0"/>
<feBlend mode="normal" in2="effect2_dropShadow_234_1735" result="effect3_dropShadow_234_1735"/>
<feColorMatrix in="SourceAlpha" type="matrix" values="0 0 0 0 0 0 0 0 0 0 0 0 0 0 0 0 0 0 127 0" result="hardAlpha"/>
<feOffset dx="15" dy="28"/>
<feGaussianBlur stdDeviation="6.5"/>
<feColorMatrix type="matrix" values="0 0 0 0 0 0 0 0 0 0 0 0 0 0 0 0 0 0 0.01 0"/>
<feBlend mode="normal" in2="effect3_dropShadow_234_1735" result="effect4_dropShadow_234_1735"/>
<feBlend mode="normal" in="SourceGraphic" in2="effect4_dropShadow_234_1735" result="shape"/>
</filter>
<filter id="filter3_dddd_234_1735" x="154.059" y="375.126" width="91.145" height="124.809" filterUnits="userSpaceOnUse" color-interpolation-filters="sRGB">
<feFlood flood-opacity="0" result="BackgroundImageFix"/>
<feColorMatrix in="SourceAlpha" type="matrix" values="0 0 0 0 0 0 0 0 0 0 0 0 0 0 0 0 0 0 127 0" result="hardAlpha"/>
<feOffset dx="1" dy="2"/>
<feGaussianBlur stdDeviation="2.5"/>
<feColorMatrix type="matrix" values="0 0 0 0 0 0 0 0 0 0 0 0 0 0 0 0 0 0 0.1 0"/>
<feBlend mode="normal" in2="BackgroundImageFix" result="effect1_dropShadow_234_1735"/>
<feColorMatrix in="SourceAlpha" type="matrix" values="0 0 0 0 0 0 0 0 0 0 0 0 0 0 0 0 0 0 127 0" result="hardAlpha"/>
<feOffset dx="5" dy="9"/>
<feGaussianBlur stdDeviation="5"/>
<feColorMatrix type="matrix" values="0 0 0 0 0 0 0 0 0 0 0 0 0 0 0 0 0 0 0.09 0"/>
<feBlend mode="normal" in2="effect1_dropShadow_234_1735" result="effect2_dropShadow_234_1735"/>
<feColorMatrix in="SourceAlpha" type="matrix" values="0 0 0 0 0 0 0 0 0 0 0 0 0 0 0 0 0 0 127 0" result="hardAlpha"/>
<feOffset dx="11" dy="19"/>
<feGaussianBlur stdDeviation="6.5"/>
<feColorMatrix type="matrix" values="0 0 0 0 0 0 0 0 0 0 0 0 0 0 0 0 0 0 0.05 0"/>
<feBlend mode="normal" in2="effect2_dropShadow_234_1735" result="effect3_dropShadow_234_1735"/>
<feColorMatrix in="SourceAlpha" type="matrix" values="0 0 0 0 0 0 0 0 0 0 0 0 0 0 0 0 0 0 127 0" result="hardAlpha"/>
<feOffset dx="19" dy="34"/>
<feGaussianBlur stdDeviation="8"/>
<feColorMatrix type="matrix" values="0 0 0 0 0 0 0 0 0 0 0 0 0 0 0 0 0 0 0.01 0"/>
<feBlend mode="normal" in2="effect3_dropShadow_234_1735" result="effect4_dropShadow_234_1735"/>
<feBlend mode="normal" in="SourceGraphic" in2="effect4_dropShadow_234_1735" result="shape"/>
</filter>
<filter id="filter4_dddd_234_1735" x="116.577" y="178.107" width="83.1445" height="114.764" filterUnits="userSpaceOnUse" color-interpolation-filters="sRGB">
<feFlood flood-opacity="0" result="BackgroundImageFix"/>
<feColorMatrix in="SourceAlpha" type="matrix" values="0 0 0 0 0 0 0 0 0 0 0 0 0 0 0 0 0 0 127 0" result="hardAlpha"/>
<feOffset dx="1" dy="2"/>
<feGaussianBlur stdDeviation="2"/>
<feColorMatrix type="matrix" values="0 0 0 0 0 0 0 0 0 0 0 0 0 0 0 0 0 0 0.1 0"/>
<feBlend mode="normal" in2="BackgroundImageFix" result="effect1_dropShadow_234_1735"/>
<feColorMatrix in="SourceAlpha" type="matrix" values="0 0 0 0 0 0 0 0 0 0 0 0 0 0 0 0 0 0 127 0" result="hardAlpha"/>
<feOffset dx="4" dy="7"/>
<feGaussianBlur stdDeviation="4"/>
<feColorMatrix type="matrix" values="0 0 0 0 0 0 0 0 0 0 0 0 0 0 0 0 0 0 0.09 0"/>
<feBlend mode="normal" in2="effect1_dropShadow_234_1735" result="effect2_dropShadow_234_1735"/>
<feColorMatrix in="SourceAlpha" type="matrix" values="0 0 0 0 0 0 0 0 0 0 0 0 0 0 0 0 0 0 127 0" result="hardAlpha"/>
<feOffset dx="9" dy="16"/>
<feGaussianBlur stdDeviation="5.5"/>
<feColorMatrix type="matrix" values="0 0 0 0 0 0 0 0 0 0 0 0 0 0 0 0 0 0 0.05 0"/>
<feBlend mode="normal" in2="effect2_dropShadow_234_1735" result="effect3_dropShadow_234_1735"/>
<feColorMatrix in="SourceAlpha" type="matrix" values="0 0 0 0 0 0 0 0 0 0 0 0 0 0 0 0 0 0 127 0" result="hardAlpha"/>
<feOffset dx="15" dy="28"/>
<feGaussianBlur stdDeviation="6.5"/>
<feColorMatrix type="matrix" values="0 0 0 0 0 0 0 0 0 0 0 0 0 0 0 0 0 0 0.01 0"/>
<feBlend mode="normal" in2="effect3_dropShadow_234_1735" result="effect4_dropShadow_234_1735"/>
<feBlend mode="normal" in="SourceGraphic" in2="effect4_dropShadow_234_1735" result="shape"/>
</filter>
<filter id="filter5_dddd_234_1735" x="43.5771" y="452.107" width="91.144" height="124.764" filterUnits="userSpaceOnUse" color-interpolation-filters="sRGB">
<feFlood flood-opacity="0" result="BackgroundImageFix"/>
<feColorMatrix in="SourceAlpha" type="matrix" values="0 0 0 0 0 0 0 0 0 0 0 0 0 0 0 0 0 0 127 0" result="hardAlpha"/>
<feOffset dx="1" dy="2"/>
<feGaussianBlur stdDeviation="2.5"/>
<feColorMatrix type="matrix" values="0 0 0 0 0 0 0 0 0 0 0 0 0 0 0 0 0 0 0.1 0"/>
<feBlend mode="normal" in2="BackgroundImageFix" result="effect1_dropShadow_234_1735"/>
<feColorMatrix in="SourceAlpha" type="matrix" values="0 0 0 0 0 0 0 0 0 0 0 0 0 0 0 0 0 0 127 0" result="hardAlpha"/>
<feOffset dx="5" dy="9"/>
<feGaussianBlur stdDeviation="5"/>
<feColorMatrix type="matrix" values="0 0 0 0 0 0 0 0 0 0 0 0 0 0 0 0 0 0 0.09 0"/>
<feBlend mode="normal" in2="effect1_dropShadow_234_1735" result="effect2_dropShadow_234_1735"/>
<feColorMatrix in="SourceAlpha" type="matrix" values="0 0 0 0 0 0 0 0 0 0 0 0 0 0 0 0 0 0 127 0" result="hardAlpha"/>
<feOffset dx="11" dy="19"/>
<feGaussianBlur stdDeviation="6.5"/>
<feColorMatrix type="matrix" values="0 0 0 0 0 0 0 0 0 0 0 0 0 0 0 0 0 0 0.05 0"/>
<feBlend mode="normal" in2="effect2_dropShadow_234_1735" result="effect3_dropShadow_234_1735"/>
<feColorMatrix in="SourceAlpha" type="matrix" values="0 0 0 0 0 0 0 0 0 0 0 0 0 0 0 0 0 0 127 0" result="hardAlpha"/>
<feOffset dx="19" dy="34"/>
<feGaussianBlur stdDeviation="8"/>
<feColorMatrix type="matrix" values="0 0 0 0 0 0 0 0 0 0 0 0 0 0 0 0 0 0 0.01 0"/>
<feBlend mode="normal" in2="effect3_dropShadow_234_1735" result="effect4_dropShadow_234_1735"/>
<feBlend mode="normal" in="SourceGraphic" in2="effect4_dropShadow_234_1735" result="shape"/>
</filter>
<filter id="filter6_dddd_234_1735" x="197.781" y="566.995" width="91.0864" height="124.764" filterUnits="userSpaceOnUse" color-interpolation-filters="sRGB">
<feFlood flood-opacity="0" result="BackgroundImageFix"/>
<feColorMatrix in="SourceAlpha" type="matrix" values="0 0 0 0 0 0 0 0 0 0 0 0 0 0 0 0 0 0 127 0" result="hardAlpha"/>
<feOffset dx="1" dy="2"/>
<feGaussianBlur stdDeviation="2.5"/>
<feColorMatrix type="matrix" values="0 0 0 0 0 0 0 0 0 0 0 0 0 0 0 0 0 0 0.1 0"/>
<feBlend mode="normal" in2="BackgroundImageFix" result="effect1_dropShadow_234_1735"/>
<feColorMatrix in="SourceAlpha" type="matrix" values="0 0 0 0 0 0 0 0 0 0 0 0 0 0 0 0 0 0 127 0" result="hardAlpha"/>
<feOffset dx="5" dy="9"/>
<feGaussianBlur stdDeviation="5"/>
<feColorMatrix type="matrix" values="0 0 0 0 0 0 0 0 0 0 0 0 0 0 0 0 0 0 0.09 0"/>
<feBlend mode="normal" in2="effect1_dropShadow_234_1735" result="effect2_dropShadow_234_1735"/>
<feColorMatrix in="SourceAlpha" type="matrix" values="0 0 0 0 0 0 0 0 0 0 0 0 0 0 0 0 0 0 127 0" result="hardAlpha"/>
<feOffset dx="11" dy="19"/>
<feGaussianBlur stdDeviation="6.5"/>
<feColorMatrix type="matrix" values="0 0 0 0 0 0 0 0 0 0 0 0 0 0 0 0 0 0 0.05 0"/>
<feBlend mode="normal" in2="effect2_dropShadow_234_1735" result="effect3_dropShadow_234_1735"/>
<feColorMatrix in="SourceAlpha" type="matrix" values="0 0 0 0 0 0 0 0 0 0 0 0 0 0 0 0 0 0 127 0" result="hardAlpha"/>
<feOffset dx="19" dy="34"/>
<feGaussianBlur stdDeviation="8"/>
<feColorMatrix type="matrix" values="0 0 0 0 0 0 0 0 0 0 0 0 0 0 0 0 0 0 0.01 0"/>
<feBlend mode="normal" in2="effect3_dropShadow_234_1735" result="effect4_dropShadow_234_1735"/>
<feBlend mode="normal" in="SourceGraphic" in2="effect4_dropShadow_234_1735" result="shape"/>
</filter>
<filter id="filter7_dddd_234_1735" x="280" y="279.751" width="83.1636" height="114.839" filterUnits="userSpaceOnUse" color-interpolation-filters="sRGB">
<feFlood flood-opacity="0" result="BackgroundImageFix"/>
<feColorMatrix in="SourceAlpha" type="matrix" values="0 0 0 0 0 0 0 0 0 0 0 0 0 0 0 0 0 0 127 0" result="hardAlpha"/>
<feOffset dx="1" dy="2"/>
<feGaussianBlur stdDeviation="2"/>
<feColorMatrix type="matrix" values="0 0 0 0 0 0 0 0 0 0 0 0 0 0 0 0 0 0 0.1 0"/>
<feBlend mode="normal" in2="BackgroundImageFix" result="effect1_dropShadow_234_1735"/>
<feColorMatrix in="SourceAlpha" type="matrix" values="0 0 0 0 0 0 0 0 0 0 0 0 0 0 0 0 0 0 127 0" result="hardAlpha"/>
<feOffset dx="4" dy="7"/>
<feGaussianBlur stdDeviation="4"/>
<feColorMatrix type="matrix" values="0 0 0 0 0 0 0 0 0 0 0 0 0 0 0 0 0 0 0.09 0"/>
<feBlend mode="normal" in2="effect1_dropShadow_234_1735" result="effect2_dropShadow_234_1735"/>
<feColorMatrix in="SourceAlpha" type="matrix" values="0 0 0 0 0 0 0 0 0 0 0 0 0 0 0 0 0 0 127 0" result="hardAlpha"/>
<feOffset dx="9" dy="16"/>
<feGaussianBlur stdDeviation="5.5"/>
<feColorMatrix type="matrix" values="0 0 0 0 0 0 0 0 0 0 0 0 0 0 0 0 0 0 0.05 0"/>
<feBlend mode="normal" in2="effect2_dropShadow_234_1735" result="effect3_dropShadow_234_1735"/>
<feColorMatrix in="SourceAlpha" type="matrix" values="0 0 0 0 0 0 0 0 0 0 0 0 0 0 0 0 0 0 127 0" result="hardAlpha"/>
<feOffset dx="15" dy="28"/>
<feGaussianBlur stdDeviation="6.5"/>
<feColorMatrix type="matrix" values="0 0 0 0 0 0 0 0 0 0 0 0 0 0 0 0 0 0 0.01 0"/>
<feBlend mode="normal" in2="effect3_dropShadow_234_1735" result="effect4_dropShadow_234_1735"/>
<feBlend mode="normal" in="SourceGraphic" in2="effect4_dropShadow_234_1735" result="shape"/>
</filter>
</defs>
</svg>
