<svg width="128" height="48" viewBox="0 0 128 48" fill="none" xmlns="http://www.w3.org/2000/svg">
<path d="M31.1308 7.82202C31.1308 8.7263 30.9457 9.40451 30.5754 9.85665C30.1992 10.3088 29.5931 10.5349 28.7571 10.5349C28.6974 11.1679 28.563 12.2681 28.354 13.8355C28.0555 15.9455 27.8913 17.121 27.8614 17.3622C25.2041 37.3468 19.6655 47.3391 11.2457 47.3391C8.76756 47.3391 6.83578 46.6307 5.45039 45.214C4.05904 43.7973 3.36336 42.0189 3.36336 39.8787C3.36336 36.0506 4.97566 32.6656 8.20026 29.7237C11.4249 26.7878 15.6646 24.3553 20.9195 22.4261C21.248 20.286 21.5018 18.372 21.6809 16.684L22.4871 9.85665C20.6956 9.6758 19.0236 9.58537 17.471 9.58537C13.3208 9.58537 10.2604 9.99229 8.28984 10.8061C6.31925 11.62 5.33395 12.9463 5.33395 14.785C5.33395 15.6893 5.63252 16.6689 6.22967 17.7239C6.40882 18.0253 6.49839 18.3418 6.49839 18.6734C6.49839 19.3064 6.17891 19.87 5.53997 20.3644C4.89504 20.8648 4.19937 21.1149 3.45293 21.1149C2.49749 21.1149 1.76598 20.708 1.25841 19.8942C0.422399 18.5076 0.00439453 16.895 0.00439453 15.0563C0.00439453 7.82202 6.27446 4.2049 18.8146 4.2049C22.4572 4.2049 25.7117 4.56661 28.578 5.29004C30.2799 5.71203 31.1308 6.55603 31.1308 7.82202ZM11.8279 42.5012C13.291 42.5012 14.754 41.3859 16.217 39.1553C17.68 36.9248 18.9639 33.0213 20.0686 27.4449C12.7834 30.6702 9.14077 34.6189 9.14077 39.291C9.14077 40.3158 9.37963 41.1056 9.85735 41.6602C10.3351 42.2208 10.9919 42.5012 11.8279 42.5012ZM53.076 28.6205C53.4642 28.6205 53.7627 28.8164 53.9717 29.2082C54.1807 29.6001 54.2852 30.0975 54.2852 30.7003C54.2852 32.1472 53.8523 33.0062 52.9864 33.2775C51.195 33.9105 49.2244 34.2722 47.0747 34.3626C46.5074 36.8946 45.3877 38.9232 43.7157 40.4484C42.0437 41.9676 40.1477 42.7272 38.0279 42.7272C36.2364 42.7272 34.7047 42.2902 33.4328 41.416C32.1668 40.5419 31.2054 39.3814 30.5486 37.9345C29.8917 36.4877 29.5633 34.9203 29.5633 33.2323C29.5633 30.9414 29.9962 28.8978 30.8621 27.1013C31.7279 25.3108 32.9222 23.9092 34.445 22.8964C35.9677 21.8896 37.6546 21.3862 39.5058 21.3862C41.775 21.3862 43.6022 22.176 44.9876 23.7554C46.379 25.3409 47.1941 27.2942 47.433 29.6152C48.8363 29.5247 50.5083 29.2233 52.449 28.7109C52.6879 28.6506 52.8969 28.6205 53.076 28.6205ZM38.3862 37.9345C39.3416 37.9345 40.1686 37.5427 40.8673 36.759C41.5719 35.9753 42.0437 34.8449 42.2825 33.3679C41.357 32.7349 40.6464 31.906 40.1507 30.8812C39.6611 29.8563 39.4162 28.7712 39.4162 27.6258C39.4162 27.1435 39.461 26.6612 39.5506 26.1789H39.3267C38.1324 26.1789 37.1381 26.7576 36.3439 27.9151C35.5557 29.0786 35.1615 30.7154 35.1615 32.8254C35.1615 34.4832 35.481 35.7492 36.12 36.6233C36.7649 37.4975 37.5203 37.9345 38.3862 37.9345ZM74.2599 28.6205C74.648 28.6205 74.9466 28.8164 75.1556 29.2082C75.3646 29.6001 75.4691 30.0975 75.4691 30.7003C75.4691 31.4539 75.3646 32.0326 75.1556 32.4365C74.9466 32.8465 74.6182 33.1268 74.1703 33.2775C72.3789 33.9105 70.4083 34.2722 68.2585 34.3626C67.6614 36.8645 66.5328 38.884 64.8727 40.4213C63.2186 41.9586 61.3913 42.7272 59.3909 42.7272C56.3753 42.7272 54.1807 41.5667 52.8073 39.2458C51.4339 36.9248 50.7471 33.5639 50.7471 29.163C50.7471 25.2746 51.2248 21.0456 52.1803 16.476C53.1357 11.9124 54.5301 8.02398 56.3633 4.81077C58.2025 1.60359 60.3911 0 62.929 0C64.3024 0 65.4071 0.593812 66.2431 1.78143C67.0792 2.97508 67.4972 4.5214 67.4972 6.42039C67.4972 8.89209 67.0344 11.3487 66.1088 13.7903C65.1832 16.2318 63.6455 18.794 61.4958 21.4767C63.4963 21.6274 65.1235 22.4623 66.3775 23.9815C67.6315 25.5067 68.378 27.3846 68.6168 29.6152C70.0201 29.5247 71.6921 29.2233 73.6329 28.7109C73.812 28.6506 74.021 28.6205 74.2599 28.6205ZM61.8989 4.47619C61.3017 4.47619 60.6508 5.37142 59.9462 7.1619C59.2475 8.9584 58.5996 11.3939 58.0025 14.4685C57.4053 17.543 56.9575 20.9039 56.6589 24.5512C58.6295 20.9039 60.203 17.6847 61.3794 14.8935C62.5617 12.1083 63.1529 9.63058 63.1529 7.46031C63.1529 6.49574 63.0394 5.75725 62.8125 5.24482C62.5916 4.7324 62.287 4.47619 61.8989 4.47619ZM59.57 37.9345C60.4956 37.9345 61.3167 37.5427 62.0332 36.759C62.7498 35.9753 63.2275 34.8449 63.4664 33.3679C62.5408 32.7349 61.8302 31.906 61.3346 30.8812C60.8449 29.8563 60.6001 28.7712 60.6001 27.6258C60.6001 27.2038 60.6598 26.631 60.7792 25.9076H60.6449C59.4207 25.9076 58.3966 26.5195 57.5725 27.7433C56.7544 28.9611 56.3454 30.5948 56.3454 32.6445C56.3454 34.3626 56.6649 35.6738 57.3038 36.5781C57.9487 37.4824 58.7041 37.9345 59.57 37.9345ZM77.3859 42.7272C76.0722 42.7272 75.081 42.3655 74.4121 41.6421C73.7374 40.9187 73.4 39.9692 73.4 38.7936C73.4 37.4372 73.7822 36.3521 74.5465 35.5382C75.3049 34.7243 76.3708 34.3174 77.7442 34.3174C79.058 34.3174 80.0522 34.64 80.727 35.285C81.3958 35.9361 81.7302 36.8946 81.7302 38.1606C81.7302 39.5472 81.3421 40.6534 80.5658 41.4793C79.7895 42.3113 78.7295 42.7272 77.3859 42.7272ZM102.78 32.4184C103.168 32.4184 103.475 32.5993 103.702 32.961C103.923 33.3227 104.034 33.8201 104.034 34.4531C104.034 35.6588 103.75 36.5932 103.183 37.2563C101.899 38.8539 100.505 40.1651 98.9998 41.19C97.489 42.2148 95.7781 42.7272 93.8673 42.7272C91.2398 42.7272 89.2931 41.5215 88.0271 39.1101C86.7552 36.6987 86.1193 33.5789 86.1193 29.7508C86.1193 26.0734 86.591 21.8836 87.5345 17.1813C88.472 12.4791 89.8604 8.43995 91.6996 5.06397C93.5329 1.68799 95.7184 0 98.2563 0C99.6895 0 100.818 0.669168 101.642 2.0075C102.46 3.35187 102.869 5.27497 102.869 7.77681C102.869 11.3638 101.884 15.5235 99.9134 20.2559C97.9428 24.9883 95.2706 29.6755 91.8967 34.3174C92.1057 35.5533 92.449 36.4334 92.9268 36.9579C93.4045 37.4884 94.0315 37.7537 94.8078 37.7537C96.0319 37.7537 97.1068 37.398 98.0324 36.6866C98.958 35.9813 100.137 34.7696 101.57 33.0514C101.929 32.6294 102.332 32.4184 102.78 32.4184ZM97.271 4.47619C96.5843 4.47619 95.808 5.72711 94.9421 8.22895C94.0763 10.7308 93.3149 13.8355 92.658 17.543C92.0012 21.2506 91.6429 24.8074 91.5832 28.2135C93.703 24.6868 95.39 21.1511 96.644 17.6063C97.898 14.0676 98.525 10.8363 98.525 7.91245C98.525 5.62161 98.107 4.47619 97.271 4.47619ZM126.292 32.4184C126.681 32.4184 126.985 32.5993 127.206 32.961C127.433 33.3227 127.546 33.8201 127.546 34.4531C127.546 35.6588 127.263 36.5932 126.696 37.2563C125.352 38.9142 123.993 40.2405 122.62 41.2352C121.247 42.2299 119.619 42.7272 117.738 42.7272C115.439 42.7272 113.588 42.0641 112.185 40.7378C110.782 39.4115 110.08 37.6482 110.08 35.4478C110.08 34.2722 110.677 33.4282 111.871 32.9158C113.185 32.3431 114.126 31.7312 114.693 31.0801C115.26 30.435 115.544 29.6453 115.544 28.7109C115.544 28.1683 115.43 27.7614 115.203 27.4901C114.982 27.2188 114.708 27.0832 114.379 27.0832C113.573 27.0832 112.683 27.671 111.71 28.8465C110.743 30.0221 109.841 31.5353 109.005 33.386C108.169 35.2428 107.512 37.1508 107.034 39.1101C106.706 40.5268 106.324 41.4823 105.888 41.9767C105.458 42.477 104.78 42.7272 103.855 42.7272C102.929 42.7272 102.248 42.3866 101.812 41.7054C101.382 41.0302 101.093 39.9842 100.943 38.5675C100.794 37.1508 100.72 35.071 100.72 32.328C100.72 27.686 101.188 22.8481 102.126 17.8143C103.069 12.7805 104.458 8.55147 106.291 5.12727C108.13 1.70909 110.334 0 112.901 0C114.275 0 115.386 0.593812 116.233 1.78143C117.087 2.97508 117.514 4.5214 117.514 6.42039C117.514 9.4648 116.634 12.6207 114.872 15.8882C113.11 19.1617 110.244 22.9838 106.273 27.3545C106.183 28.9219 106.139 30.5345 106.139 32.1924C107.572 28.4245 109.214 25.6876 111.065 23.9815C112.916 22.2815 114.648 21.4314 116.26 21.4314C117.753 21.4314 118.953 21.9439 119.861 22.9687C120.775 23.9936 121.232 25.2596 121.232 26.7667C121.232 28.4245 120.814 29.9467 119.978 31.3333C119.142 32.7199 117.708 33.9557 115.678 35.0409C115.798 35.8547 116.162 36.5088 116.771 37.0031C117.386 37.5035 118.126 37.7537 118.992 37.7537C119.918 37.7537 120.814 37.392 121.679 36.6686C122.545 35.9451 123.68 34.7394 125.083 33.0514C125.442 32.6294 125.845 32.4184 126.292 32.4184ZM111.961 4.47619C111.423 4.47619 110.826 5.25085 110.169 6.80019C109.513 8.35555 108.877 10.4535 108.262 13.094C107.652 15.7284 107.154 18.598 106.766 21.7027C108.617 19.5023 110.146 17.106 111.352 14.5137C112.564 11.9214 113.17 9.5703 113.17 7.46031C113.17 6.49574 113.066 5.75725 112.857 5.24482C112.648 4.7324 112.349 4.47619 111.961 4.47619Z" fill="#1DBF73"/>
</svg>
